/* XPM */
static char *result[] = {
/* columns rows colors chars-per-pixel */
"96 96 8 1 ",
"  c #2F2F2F",
". c #663835",
"X c #9D473F",
"o c #AC4C43",
"O c #D1584C",
"+ c #ED6354",
"@ c #F66757",
"# c None",
/* pixels */
"################################################################################################",
"################################################################################################",
"################################################################################################",
"################################################################################################",
"################################################################################################",
"################################################################################################",
"################################################################################################",
"################################################################################################",
"################################################################################################",
"#############################################   ooo#############################################",
"#############################################   ooo#############################################",
"#############################################   ooo#############################################",
"##########################################   oooooo@@@##########################################",
"##########################################   oooooo@@@##########################################",
"##########################################   oooooo@@@##########################################",
"#######################################   ooooooooo@@@@@@#######################################",
"#######################################   ooooooooo@@@@@@#######################################",
"#######################################   ooooooooo@@@@@@#######################################",
"####################################   oooooooooooo@@@@@@@@@####################################",
"####################################   oooooooooooo@@@@@@@@@####################################",
"####################################   oooooooooooo@@@@@@@@@####################################",
"####################################   oooooooooooo@@@@@@@@@####################################",
"####################################   oooooooooooo@@@@@@@@@####################################",
"####################################   oooooooooooo@@@@@@@@@####################################",
"####################################   oooooooooooo@@@@@@@@@####################################",
"####################################   oooooooooooo@@@@@@@@@####################################",
"####################################   oooooooooooo@@@@@@@@@####################################",
"####################################   oooooooooooo@@@@@@@@@####################################",
"####################################   oooooooooooo@@@@@@@@@####################################",
"####################################   oooooooooooo@@@@@@@@@####################################",
"####################################   XXXXXXXXXXXX+++++++++####################################",
"####################################   XXXXXXXXXXXX+++++++++####################################",
"####################################   XXXXXXXXXXXX+++++++++####################################",
"####################################   XXXXXXXXXXXX+++++++++####################################",
"####################################   XXXXXXXXXXXX+++++++++####################################",
"####################################   XXXXXXXXXXXX+++++++++####################################",
"####################################   XXXXXXXXXXXX+++++++++####################################",
"####################################   XXXXXXXXXXXX+++++++++####################################",
"####################################   XXXXXXXXXXXX+++++++++####################################",
"####################################   XXXXXXXXXXXX+++++++++####################################",
"####################################   XXXXXXXXXXXX+++++++++####################################",
"####################################   XXXXXXXXXXXX+++++++++####################################",
"####################################   XXXXXXXXXXXX+++++++++####################################",
"####################################   XXXXXXXXXXXX+++++++++####################################",
"####################################   XXXXXXXXXXXX+++++++++####################################",
"####################################   XXXXXXXXXXXX+++++++++####################################",
"####################################   XXXXXXXXXXXX+++++++++####################################",
"####################################   XXXXXXXXXXXX+++++++++####################################",
"####################################   XXXXXXXXXXXX+++++++++####################################",
"####################################   XXXXXXXXXXXX+++++++++####################################",
"####################################   XXXXXXXXXXXX+++++++++####################################",
"####################################   XXXXXXXXXXXX+++++++++####################################",
"####################################   XXXXXXXXXXXX+++++++++####################################",
"####################################   XXXXXXXXXXXX+++++++++####################################",
"####################################   XXXXXXXXXXXX+++++++++####################################",
"####################################   XXXXXXXXXXXX+++++++++####################################",
"####################################   XXXXXXXXXXXX+++++++++####################################",
"####################################   XXXXXXXXXXXX+++++++++####################################",
"####################################   XXXXXXXXXXXX+++++++++####################################",
"####################################   XXXXXXXXXXXX+++++++++####################################",
"####################################   XXXXXXXXXXXX+++++++++####################################",
"####################################   XXXXXXXXXXXX+++++++++####################################",
"####################################   XXXXXXXXXXXX+++++++++####################################",
"####################################   XXXXXXXXXXXX+++++++++####################################",
"####################################   XXXXXXXXXXXX+++++++++####################################",
"####################################   XXXXXXXXXXXX+++++++++####################################",
"####################################   ............OOOOOOOOO####################################",
"####################################   ............OOOOOOOOO####################################",
"####################################   ............OOOOOOOOO####################################",
"####################################   ............OOOOOOOOO####################################",
"####################################   ............OOOOOOOOO####################################",
"####################################   ............OOOOOOOOO####################################",
"####################################   ............OOOOOOOOO####################################",
"####################################   ............OOOOOOOOO####################################",
"####################################   ............OOOOOOOOO####################################",
"####################################   ............OOOOOOOOO####################################",
"####################################   ............OOOOOOOOO####################################",
"####################################   ............OOOOOOOOO####################################",
"#######################################   .........OOOOOO#######################################",
"#######################################   .........OOOOOO#######################################",
"#######################################   .........OOOOOO#######################################",
"##########################################   ......OOO##########################################",
"##########################################   ......OOO##########################################",
"##########################################   ......OOO##########################################",
"#############################################   ...#############################################",
"#############################################   ...#############################################",
"#############################################   ...#############################################",
"################################################################################################",
"################################################################################################",
"################################################################################################",
"################################################################################################",
"################################################################################################",
"################################################################################################",
"################################################################################################",
"################################################################################################",
"################################################################################################"
};
