/* XPM */
static char *result[] = {
/* columns rows colors chars-per-pixel */
"96 96 8 1 ",
"  c #2F2F2F",
". c #8B423B",
"X c #9D473F",
"o c #B74F45",
"O c #CE574B",
"+ c #EC6153",
"@ c #ED6354",
"# c None",
/* pixels */
"################################################################################################",
"################################################################################################",
"################################################################################################",
"################################################################################################",
"################################################################################################",
"################################################################################################",
"################################################################################################",
"################################################################################################",
"################################################################################################",
"##########################################++++++++++++##########################################",
"##########################################++++++++++++##########################################",
"##########################################++++++++++++##########################################",
"#######################################OOOOOO++++++++++++#######################################",
"#######################################OOOOOO++++++++++++#######################################",
"#######################################OOOOOO++++++++++++#######################################",
"####################################   OOOOOOOOO++++++++++++####################################",
"####################################   OOOOOOOOO++++++++++++####################################",
"####################################   OOOOOOOOO++++++++++++####################################",
"####################################OOOOOOOOOOOOOOO@@@@@@@@@####################################",
"####################################OOOOOOOOOOOOOOO@@@@@@@@@####################################",
"####################################OOOOOOOOOOOOOOO@@@@@@@@@####################################",
"####################################OOOOOOOOOOOOOOO@@@@@@@@@####################################",
"####################################OOOOOOOOOOOOOOO@@@@@@@@@####################################",
"####################################OOOOOOOOOOOOOOO@@@@@@@@@####################################",
"#################################   OOOOOOOOOOOO@@@@@@@@@@@@@@@#################################",
"#################################   OOOOOOOOOOOO@@@@@@@@@@@@@@@#################################",
"#################################   OOOOOOOOOOOO@@@@@@@@@@@@@@@#################################",
"#################################OOOOOOOOOOOOOOO@@@@@@@@@@@@@@@#################################",
"#################################OOOOOOOOOOOOOOO@@@@@@@@@@@@@@@#################################",
"#################################OOOOOOOOOOOOOOO@@@@@@@@@@@@@@@#################################",
"#################################ooooooooooooooo@@@@@@@@@@@@@@@#################################",
"#################################ooooooooooooooo@@@@@@@@@@@@@@@#################################",
"#################################ooooooooooooooo@@@@@@@@@@@@@@@#################################",
"#################################ooooooooooooooo@@@@@@@@@@@@@@@#################################",
"#################################ooooooooooooooo@@@@@@@@@@@@@@@#################################",
"#################################ooooooooooooooo@@@@@@@@@@@@@@@#################################",
"#################################ooooooooooooooo@@@@@@@@@@@@@@@#################################",
"#################################ooooooooooooooo@@@@@@@@@@@@@@@#################################",
"#################################ooooooooooooooo@@@@@@@@@@@@@@@#################################",
"#################################ooooooooooooooo@@@@@@@@@@@@@@@#################################",
"#################################ooooooooooooooo@@@@@@@@@@@@@@@#################################",
"#################################ooooooooooooooo@@@@@@@@@@@@@@@#################################",
"#################################ooooooooooooooo@@@@@@@@@@@@@@@#################################",
"#################################ooooooooooooooo@@@@@@@@@@@@@@@#################################",
"#################################ooooooooooooooo@@@@@@@@@@@@@@@#################################",
"#################################ooooooooooooooo@@@@@@@@@@@@@@@#################################",
"#################################ooooooooooooooo@@@@@@@@@@@@@@@#################################",
"#################################ooooooooooooooo@@@@@@@@@@@@@@@#################################",
"#################################ooooooooooooooo@@@@@@@@@@@@@@@#################################",
"#################################ooooooooooooooo@@@@@@@@@@@@@@@#################################",
"#################################ooooooooooooooo@@@@@@@@@@@@@@@#################################",
"#################################ooooooooooooooo@@@@@@@@@@@@@@@#################################",
"#################################ooooooooooooooo@@@@@@@@@@@@@@@#################################",
"#################################ooooooooooooooo@@@@@@@@@@@@@@@#################################",
"#################################ooooooooooooooo@@@@@@@@@@@@@@@#################################",
"#################################ooooooooooooooo@@@@@@@@@@@@@@@#################################",
"#################################ooooooooooooooo@@@@@@@@@@@@@@@#################################",
"#################################ooooooooooooooo@@@@@@@@@@@@@@@#################################",
"#################################ooooooooooooooo@@@@@@@@@@@@@@@#################################",
"#################################ooooooooooooooo@@@@@@@@@@@@@@@#################################",
"#################################ooooooooooooooo@@@@@@@@@@@@@@@#################################",
"#################################ooooooooooooooo@@@@@@@@@@@@@@@#################################",
"#################################ooooooooooooooo@@@@@@@@@@@@@@@#################################",
"#################################ooooooooooooooo@@@@@@@@@@@@@@@#################################",
"#################################ooooooooooooooo@@@@@@@@@@@@@@@#################################",
"#################################ooooooooooooooo@@@@@@@@@@@@@@@#################################",
"#################################XXXXXXXXXXXXXXX@@@@@@@@@@@@@@@#################################",
"#################################XXXXXXXXXXXXXXX@@@@@@@@@@@@@@@#################################",
"#################################XXXXXXXXXXXXXXX@@@@@@@@@@@@@@@#################################",
"#################################   XXXXXXXXXXXX@@@@@@@@@@@@@@@#################################",
"#################################   XXXXXXXXXXXX@@@@@@@@@@@@@@@#################################",
"#################################   XXXXXXXXXXXX@@@@@@@@@@@@@@@#################################",
"####################################XXXXXXXXXXXXXXX@@@@@@@@@####################################",
"####################################XXXXXXXXXXXXXXX@@@@@@@@@####################################",
"####################################XXXXXXXXXXXXXXX@@@@@@@@@####################################",
"####################################XXXXXXXXXXXXXXX@@@@@@@@@####################################",
"####################################XXXXXXXXXXXXXXX@@@@@@@@@####################################",
"####################################XXXXXXXXXXXXXXX@@@@@@@@@####################################",
"####################################   XXXXXXXXX............####################################",
"####################################   XXXXXXXXX............####################################",
"####################################   XXXXXXXXX............####################################",
"#######################################XXXXXX............#######################################",
"#######################################XXXXXX............#######################################",
"#######################################XXXXXX............#######################################",
"##########################################............##########################################",
"##########################################............##########################################",
"##########################################............##########################################",
"################################################################################################",
"################################################################################################",
"################################################################################################",
"################################################################################################",
"################################################################################################",
"################################################################################################",
"################################################################################################",
"################################################################################################",
"################################################################################################"
};
