/* XPM */
static char *result[] = {
/* columns rows colors chars-per-pixel */
"96 96 8 1 ",
"  c #2F2F2F",
". c #483231",
"X c #C25348",
"o c #D1584C",
"O c #D2584C",
"+ c #EC6153",
"@ c #F76758",
"# c None",
/* pixels */
"################################################################################################",
"################################################################################################",
"################################################################################################",
"################################################################################################",
"################################################################################################",
"################################################################################################",
"################################################################################################",
"################################################################################################",
"################################################################################################",
"#######################################OOOOOOOOOOOOOOOOOO#######################################",
"#######################################OOOOOOOOOOOOOOOOOO#######################################",
"#######################################OOOOOOOOOOOOOOOOOO#######################################",
"####################################   OOOOOOOOOOOOOOO@@@@@@####################################",
"####################################   OOOOOOOOOOOOOOO@@@@@@####################################",
"####################################   OOOOOOOOOOOOOOO@@@@@@####################################",
"####################################   OOOOOOOOOOOOOOO@@@@@@####################################",
"####################################   OOOOOOOOOOOOOOO@@@@@@####################################",
"####################################   OOOOOOOOOOOOOOO@@@@@@####################################",
"#################################         XXXXXXXXX@@@@@@@@@@@@#################################",
"#################################         XXXXXXXXX@@@@@@@@@@@@#################################",
"#################################         XXXXXXXXX@@@@@@@@@@@@#################################",
"#################################      XXXXXXXXXXXXXXX@@@@@@@@@#################################",
"#################################      XXXXXXXXXXXXXXX@@@@@@@@@#################################",
"#################################      XXXXXXXXXXXXXXX@@@@@@@@@#################################",
"##############################         XXXXXXXXXXXXXXX@@@@@@@@@@@@##############################",
"##############################         XXXXXXXXXXXXXXX@@@@@@@@@@@@##############################",
"##############################         XXXXXXXXXXXXXXX@@@@@@@@@@@@##############################",
"##############################      XXXXXXXXXXXXXXXXXXXXX@@@@@@@@@##############################",
"##############################      XXXXXXXXXXXXXXXXXXXXX@@@@@@@@@##############################",
"##############################      XXXXXXXXXXXXXXXXXXXXX@@@@@@@@@##############################",
"##############################      XXXXXXXXXXXXXXXXXXXXX+++++++++##############################",
"##############################      XXXXXXXXXXXXXXXXXXXXX+++++++++##############################",
"##############################      XXXXXXXXXXXXXXXXXXXXX+++++++++##############################",
"##############################      XXXXXXXXXXXXXXXXXXXXX+++++++++##############################",
"##############################      XXXXXXXXXXXXXXXXXXXXX+++++++++##############################",
"##############################      XXXXXXXXXXXXXXXXXXXXX+++++++++##############################",
"##############################      XXXXXXXXXXXXXXXXXXXXX+++++++++##############################",
"##############################      XXXXXXXXXXXXXXXXXXXXX+++++++++##############################",
"##############################      XXXXXXXXXXXXXXXXXXXXX+++++++++##############################",
"##############################      XXXXXXXXXXXXXXXXXXXXX+++++++++##############################",
"##############################      XXXXXXXXXXXXXXXXXXXXX+++++++++##############################",
"##############################      XXXXXXXXXXXXXXXXXXXXX+++++++++##############################",
"##############################      XXXXXXXXXXXXXXXXXXXXX+++++++++##############################",
"##############################      XXXXXXXXXXXXXXXXXXXXX+++++++++##############################",
"##############################      XXXXXXXXXXXXXXXXXXXXX+++++++++##############################",
"##############################      XXXXXXXXXXXXXXXXXXXXX+++++++++##############################",
"##############################      XXXXXXXXXXXXXXXXXXXXX+++++++++##############################",
"##############################      XXXXXXXXXXXXXXXXXXXXX+++++++++##############################",
"##############################      XXXXXXXXXXXXXXXXXXXXX+++++++++##############################",
"##############################      XXXXXXXXXXXXXXXXXXXXX+++++++++##############################",
"##############################      XXXXXXXXXXXXXXXXXXXXX+++++++++##############################",
"##############################      XXXXXXXXXXXXXXXXXXXXX+++++++++##############################",
"##############################      XXXXXXXXXXXXXXXXXXXXX+++++++++##############################",
"##############################      XXXXXXXXXXXXXXXXXXXXX+++++++++##############################",
"##############################      XXXXXXXXXXXXXXXXXXXXX+++++++++##############################",
"##############################      XXXXXXXXXXXXXXXXXXXXX+++++++++##############################",
"##############################      XXXXXXXXXXXXXXXXXXXXX+++++++++##############################",
"##############################      XXXXXXXXXXXXXXXXXXXXX+++++++++##############################",
"##############################      XXXXXXXXXXXXXXXXXXXXX+++++++++##############################",
"##############################      XXXXXXXXXXXXXXXXXXXXX+++++++++##############################",
"##############################      XXXXXXXXXXXXXXXXXXXXX+++++++++##############################",
"##############################      XXXXXXXXXXXXXXXXXXXXX+++++++++##############################",
"##############################      XXXXXXXXXXXXXXXXXXXXX+++++++++##############################",
"##############################      XXXXXXXXXXXXXXXXXXXXX+++++++++##############################",
"##############################      XXXXXXXXXXXXXXXXXXXXX+++++++++##############################",
"##############################      XXXXXXXXXXXXXXXXXXXXX+++++++++##############################",
"##############################      XXXXXXXXXXXXXXXXXXXXXooooooooo##############################",
"##############################      XXXXXXXXXXXXXXXXXXXXXooooooooo##############################",
"##############################      XXXXXXXXXXXXXXXXXXXXXooooooooo##############################",
"##############################         XXXXXXXXXXXXXXXoooooooooooo##############################",
"##############################         XXXXXXXXXXXXXXXoooooooooooo##############################",
"##############################         XXXXXXXXXXXXXXXoooooooooooo##############################",
"#################################      XXXXXXXXXXXXXXXooooooooo#################################",
"#################################      XXXXXXXXXXXXXXXooooooooo#################################",
"#################################      XXXXXXXXXXXXXXXooooooooo#################################",
"#################################         XXXXXXXXXoooooooooooo#################################",
"#################################         XXXXXXXXXoooooooooooo#################################",
"#################################         XXXXXXXXXoooooooooooo#################################",
"####################################   ...............oooooo####################################",
"####################################   ...............oooooo####################################",
"####################################   ...............oooooo####################################",
"####################################   ...............oooooo####################################",
"####################################   ...............oooooo####################################",
"####################################   ...............oooooo####################################",
"#######################################..................#######################################",
"#######################################..................#######################################",
"#######################################..................#######################################",
"################################################################################################",
"################################################################################################",
"################################################################################################",
"################################################################################################",
"################################################################################################",
"################################################################################################",
"################################################################################################",
"################################################################################################",
"################################################################################################"
};
