/* XPM */
static char *result[] = {
/* columns rows colors chars-per-pixel */
"96 96 8 1 ",
"  c #2F2F2F",
". c #85403A",
"X c #BB5146",
"o c #D76256",
"O c #E86051",
"+ c #E96052",
"@ c #F4867D",
"# c None",
/* pixels */
"################################################################################################",
"################################################################################################",
"################################################################################################",
"################################################################################################",
"################################################################################################",
"################################################################################################",
"################################################################################################",
"################################################################################################",
"################################################################################################",
"##########################################@@@+++++++++##########################################",
"##########################################@@@+++++++++##########################################",
"##########################################@@@+++++++++##########################################",
"#######################################   @@@@@@+++++++++#######################################",
"#######################################   @@@@@@+++++++++#######################################",
"#######################################   @@@@@@+++++++++#######################################",
"####################################      @@@@@@@@@+++++++++####################################",
"####################################      @@@@@@@@@+++++++++####################################",
"####################################      @@@@@@@@@+++++++++####################################",
"####################################      @@@@@@@@@@@@OOOOOO####################################",
"####################################      @@@@@@@@@@@@OOOOOO####################################",
"####################################      @@@@@@@@@@@@OOOOOO####################################",
"#################################      @@@@@@@@@@@@@@@OOOOOOOOO#################################",
"#################################      @@@@@@@@@@@@@@@OOOOOOOOO#################################",
"#################################      @@@@@@@@@@@@@@@OOOOOOOOO#################################",
"#################################      @@@@@@@@@@@@@@@OOOOOOOOO#################################",
"#################################      @@@@@@@@@@@@@@@OOOOOOOOO#################################",
"#################################      @@@@@@@@@@@@@@@OOOOOOOOO#################################",
"#################################      @@@@@@@@@@@@@@@OOOOOOOOO#################################",
"#################################      @@@@@@@@@@@@@@@OOOOOOOOO#################################",
"#################################      @@@@@@@@@@@@@@@OOOOOOOOO#################################",
"#################################      oooooooooooooooOOOOOOOOO#################################",
"#################################      oooooooooooooooOOOOOOOOO#################################",
"#################################      oooooooooooooooOOOOOOOOO#################################",
"#################################      oooooooooooooooOOOOOOOOO#################################",
"#################################      oooooooooooooooOOOOOOOOO#################################",
"#################################      oooooooooooooooOOOOOOOOO#################################",
"#################################      oooooooooooooooOOOOOOOOO#################################",
"#################################      oooooooooooooooOOOOOOOOO#################################",
"#################################      oooooooooooooooOOOOOOOOO#################################",
"#################################      oooooooooooooooOOOOOOOOO#################################",
"#################################      oooooooooooooooOOOOOOOOO#################################",
"#################################      oooooooooooooooOOOOOOOOO#################################",
"#################################      oooooooooooooooOOOOOOOOO#################################",
"#################################      oooooooooooooooOOOOOOOOO#################################",
"#################################      oooooooooooooooOOOOOOOOO#################################",
"#################################      oooooooooooooooOOOOOOOOO#################################",
"#################################      oooooooooooooooOOOOOOOOO#################################",
"#################################      oooooooooooooooOOOOOOOOO#################################",
"#################################      oooooooooooooooOOOOOOOOO#################################",
"#################################      oooooooooooooooOOOOOOOOO#################################",
"#################################      oooooooooooooooOOOOOOOOO#################################",
"#################################      oooooooooooooooOOOOOOOOO#################################",
"#################################      oooooooooooooooOOOOOOOOO#################################",
"#################################      oooooooooooooooOOOOOOOOO#################################",
"#################################      oooooooooooooooOOOOOOOOO#################################",
"#################################      oooooooooooooooOOOOOOOOO#################################",
"#################################      oooooooooooooooOOOOOOOOO#################################",
"#################################      oooooooooooooooOOOOOOOOO#################################",
"#################################      oooooooooooooooOOOOOOOOO#################################",
"#################################      oooooooooooooooOOOOOOOOO#################################",
"#################################      oooooooooooooooOOOOOOOOO#################################",
"#################################      oooooooooooooooOOOOOOOOO#################################",
"#################################      oooooooooooooooOOOOOOOOO#################################",
"#################################      oooooooooooooooOOOOOOOOO#################################",
"#################################      oooooooooooooooOOOOOOOOO#################################",
"#################################      oooooooooooooooOOOOOOOOO#################################",
"#################################      XXXXXXXXXXXXXXXOOOOOOOOO#################################",
"#################################      XXXXXXXXXXXXXXXOOOOOOOOO#################################",
"#################################      XXXXXXXXXXXXXXXOOOOOOOOO#################################",
"#################################      XXXXXXXXXXXXXXXOOOOOOOOO#################################",
"#################################      XXXXXXXXXXXXXXXOOOOOOOOO#################################",
"#################################      XXXXXXXXXXXXXXXOOOOOOOOO#################################",
"#################################      XXXXXXXXXXXXXXXOOOOOOOOO#################################",
"#################################      XXXXXXXXXXXXXXXOOOOOOOOO#################################",
"#################################      XXXXXXXXXXXXXXXOOOOOOOOO#################################",
"####################################      XXXXXXXXXXXXOOOOOO####################################",
"####################################      XXXXXXXXXXXXOOOOOO####################################",
"####################################      XXXXXXXXXXXXOOOOOO####################################",
"####################################      XXXXXXXXX.........####################################",
"####################################      XXXXXXXXX.........####################################",
"####################################      XXXXXXXXX.........####################################",
"#######################################   XXXXXX.........#######################################",
"#######################################   XXXXXX.........#######################################",
"#######################################   XXXXXX.........#######################################",
"##########################################XXX.........##########################################",
"##########################################XXX.........##########################################",
"##########################################XXX.........##########################################",
"################################################################################################",
"################################################################################################",
"################################################################################################",
"################################################################################################",
"################################################################################################",
"################################################################################################",
"################################################################################################",
"################################################################################################",
"################################################################################################"
};
