/* XPM */
static char *fad19c3874a54939f4a6cc35c024e68duGU86mmISZ33Csia[] = {
/* columns rows colors chars-per-pixel */
"96 96 4 1 ",
"  c None",
". c black",
"X c #6F9AE8",
"o c white",
/* pixels */
"                                                                                                ",
"                                                                                                ",
"                                                                                                ",
"                                                                                                ",
"                                                                                                ",
"                                                                                                ",
"                                                                                                ",
"                                                                                                ",
"                                                                                                ",
"                                                                                                ",
"                                                                                                ",
"                                                                                                ",
"                                             oooXXX                                             ",
"                                             oooXXX                                             ",
"                                             oooXXX                                             ",
"                                          ooooooXXXXXX                                          ",
"                                          ooooooXXXXXX                                          ",
"                                          ooooooXXXXXX                                          ",
"                                       oooooooooXXXXXXXXX                                       ",
"                                       oooooooooXXXXXXXXX                                       ",
"                                       oooooooooXXXXXXXXX                                       ",
"                                    oooooooooXXX...XXXXXXXXX                                    ",
"                                    oooooooooXXX...XXXXXXXXX                                    ",
"                                    oooooooooXXX...XXXXXXXXX                                    ",
"                                 oooXXXoooXXXXXXXXX...XXX...XXX                                 ",
"                                 oooXXXoooXXXXXXXXX...XXX...XXX                                 ",
"                                 oooXXXoooXXXXXXXXX...XXX...XXX                                 ",
"                              oooooooooXXXXXXXXXXXXXXX...XXXXXXXXX                              ",
"                              oooooooooXXXXXXXXXXXXXXX...XXXXXXXXX                              ",
"                              oooooooooXXXXXXXXXXXXXXX...XXXXXXXXX                              ",
"                              ooooooooooooXXXXXXXXXXXX...XXXXXXXXX                              ",
"                              ooooooooooooXXXXXXXXXXXX...XXXXXXXXX                              ",
"                              ooooooooooooXXXXXXXXXXXX...XXXXXXXXX                              ",
"                              ooooooooooooXXXXXXXXXXXX...XXXXXXXXX                              ",
"                              ooooooooooooXXXXXXXXXXXX...XXXXXXXXX                              ",
"                              ooooooooooooXXXXXXXXXXXX...XXXXXXXXX                              ",
"                              ooooooooooooXXXXXXXXXXXX...XXXXXXXXX                              ",
"                              ooooooooooooXXXXXXXXXXXX...XXXXXXXXX                              ",
"                              ooooooooooooXXXXXXXXXXXX...XXXXXXXXX                              ",
"                              ooooooooooooXXXXXXXXXXXX...XXXXXXXXX                              ",
"                              ooooooooooooXXXXXXXXXXXX...XXXXXXXXX                              ",
"                              ooooooooooooXXXXXXXXXXXX...XXXXXXXXX                              ",
"                              ooooooooooooXXXXXXXXXXXX...XXXXXXXXX                              ",
"                              ooooooooooooXXXXXXXXXXXX...XXXXXXXXX                              ",
"                              ooooooooooooXXXXXXXXXXXX...XXXXXXXXX                              ",
"                              ooooooooooooXXXXXXXXXXXX...XXXXXXXXX                              ",
"                              ooooooooooooXXXXXXXXXXXX...XXXXXXXXX                              ",
"                              ooooooooooooXXXXXXXXXXXX...XXXXXXXXX                              ",
"                              ooooooooooooXXXXXXXXXXXX...XXXXXXXXX                              ",
"                              ooooooooooooXXXXXXXXXXXX...XXXXXXXXX                              ",
"                              ooooooooooooXXXXXXXXXXXX...XXXXXXXXX                              ",
"                              ooooooooooooXXXXXXXXXXXX...XXXXXXXXX                              ",
"                              ooooooooooooXXXXXXXXXXXX...XXXXXXXXX                              ",
"                              ooooooooooooXXXXXXXXXXXX...XXXXXXXXX                              ",
"                              ooooooooooooXXXXXXXXXXXX...XXXXXXXXX                              ",
"                              ooooooooooooXXXXXXXXXXXX...XXXXXXXXX                              ",
"                              ooooooooooooXXXXXXXXXXXX...XXXXXXXXX                              ",
"                              ooooooooooooXXXXXXXXXXXX...XXXXXXXXX                              ",
"                              ooooooooooooXXXXXXXXXXXX...XXXXXXXXX                              ",
"                              ooooooooooooXXXXXXXXXXXX...XXXXXXXXX                              ",
"                              ooooooooooooXXXXXXXXXXXX...XXXXXXXXX                              ",
"                              ooooooooooooXXXXXXXXXXXX...XXXXXXXXX                              ",
"                              ooooooooooooXXXXXXXXXXXX...XXXXXXXXX                              ",
"                              ooooooooooooXXXXXXXXXXXX...XXXXXXXXX                              ",
"                              ooooooooooooXXXXXXXXXXXX...XXXXXXXXX                              ",
"                              ooooooooooooXXXXXXXXXXXX...XXXXXXXXX                              ",
"                              ooooooooooooXXXXXXXXXXXX...XXXXXXXXX                              ",
"                              ooooooooooooXXXXXXXXXXXX...XXXXXXXXX                              ",
"                              ooooooooooooXXXXXXXXXXXX...XXXXXXXXX                              ",
"                                 ooooooXXXoooXXXXXX...XXX...XXX                                 ",
"                                 ooooooXXXoooXXXXXX...XXX...XXX                                 ",
"                                 ooooooXXXoooXXXXXX...XXX...XXX                                 ",
"                                    XXXXXXXXXooo...XXXXXXXXX                                    ",
"                                    XXXXXXXXXooo...XXXXXXXXX                                    ",
"                                    XXXXXXXXXooo...XXXXXXXXX                                    ",
"                                       XXXXXXXXXXXXXXXXXX                                       ",
"                                       XXXXXXXXXXXXXXXXXX                                       ",
"                                       XXXXXXXXXXXXXXXXXX                                       ",
"                                          XXXXXXXXXXXX                                          ",
"                                          XXXXXXXXXXXX                                          ",
"                                          XXXXXXXXXXXX                                          ",
"                                             XXXXXX                                             ",
"                                             XXXXXX                                             ",
"                                             XXXXXX                                             ",
"                                                                                                ",
"                                                                                                ",
"                                                                                                ",
"                                                                                                ",
"                                                                                                ",
"                                                                                                ",
"                                                                                                ",
"                                                                                                ",
"                                                                                                ",
"                                                                                                ",
"                                                                                                ",
"                                                                                                "
};
