/* XPM */
static char *_ff06ae11ee24875abf64fc1365ff1acKe7Lm15o0vrZrGgS[] = {
/* columns rows colors chars-per-pixel */
"96 96 4 1 ",
"  c None",
". c #C84C0C",
"X c #FC9838",
"o c #80D010",
/* pixels */
"                              oooooooooooooooooooooooooooooooooooo                              ",
"                              oooooooooooooooooooooooooooooooooooo                              ",
"                              oooooooooooooooooooooooooooooooooooo                              ",
"                              oooooooooooooooooooooooooooooooooooo                              ",
"                              oooooooooooooooooooooooooooooooooooo                              ",
"                              oooooooooooooooooooooooooooooooooooo                              ",
"                        oooooooooooooooooooooooooooooooooooooooooooooooo                        ",
"                        oooooooooooooooooooooooooooooooooooooooooooooooo                        ",
"                        oooooooooooooooooooooooooooooooooooooooooooooooo                        ",
"                        oooooooooooooooooooooooooooooooooooooooooooooooo                        ",
"                        oooooooooooooooooooooooooooooooooooooooooooooooo                        ",
"                        oooooooooooooooooooooooooooooooooooooooooooooooo                        ",
"            XXXXXX      oooooo....................................oooooo      XXXXXX            ",
"            XXXXXX      oooooo....................................oooooo      XXXXXX            ",
"            XXXXXX      oooooo....................................oooooo      XXXXXX            ",
"            XXXXXX      oooooo....................................oooooo      XXXXXX            ",
"            XXXXXX      oooooo....................................oooooo      XXXXXX            ",
"            XXXXXX      oooooo....................................oooooo      XXXXXX            ",
"            XXXXXX      ................................................      XXXXXX            ",
"            XXXXXX      ................................................      XXXXXX            ",
"            XXXXXX      ................................................      XXXXXX            ",
"            XXXXXX      ................................................      XXXXXX            ",
"            XXXXXX      ................................................      XXXXXX            ",
"            XXXXXX      ................................................      XXXXXX            ",
"            XXXXXXXXXXXX......XXXXXXooooooXXXXXXXXXXXXooooooXXXXXX......XXXXXXXXXXXX            ",
"            XXXXXXXXXXXX......XXXXXXooooooXXXXXXXXXXXXooooooXXXXXX......XXXXXXXXXXXX            ",
"            XXXXXXXXXXXX......XXXXXXooooooXXXXXXXXXXXXooooooXXXXXX......XXXXXXXXXXXX            ",
"            XXXXXXXXXXXX......XXXXXXooooooXXXXXXXXXXXXooooooXXXXXX......XXXXXXXXXXXX            ",
"            XXXXXXXXXXXX......XXXXXXooooooXXXXXXXXXXXXooooooXXXXXX......XXXXXXXXXXXX            ",
"            XXXXXXXXXXXX......XXXXXXooooooXXXXXXXXXXXXooooooXXXXXX......XXXXXXXXXXXX            ",
"            XXXXXXXXXXXX......XXXXXX......XXXXXXXXXXXX......XXXXXX......XXXXXXXXXXXX            ",
"            XXXXXXXXXXXX......XXXXXX......XXXXXXXXXXXX......XXXXXX......XXXXXXXXXXXX            ",
"            XXXXXXXXXXXX......XXXXXX......XXXXXXXXXXXX......XXXXXX......XXXXXXXXXXXX            ",
"            XXXXXXXXXXXX......XXXXXX......XXXXXXXXXXXX......XXXXXX......XXXXXXXXXXXX            ",
"            XXXXXXXXXXXX......XXXXXX......XXXXXXXXXXXX......XXXXXX......XXXXXXXXXXXX            ",
"            XXXXXXXXXXXX......XXXXXX......XXXXXXXXXXXX......XXXXXX......XXXXXXXXXXXX            ",
"                  XXXXXXXXXXXXXXXXXXXXXXXXXXXXXXXXXXXXXXXXXXXXXXXXXXXXXXXXXXXX......            ",
"                  XXXXXXXXXXXXXXXXXXXXXXXXXXXXXXXXXXXXXXXXXXXXXXXXXXXXXXXXXXXX......            ",
"                  XXXXXXXXXXXXXXXXXXXXXXXXXXXXXXXXXXXXXXXXXXXXXXXXXXXXXXXXXXXX......            ",
"                  XXXXXXXXXXXXXXXXXXXXXXXXXXXXXXXXXXXXXXXXXXXXXXXXXXXXXXXXXXXX......            ",
"                  XXXXXXXXXXXXXXXXXXXXXXXXXXXXXXXXXXXXXXXXXXXXXXXXXXXXXXXXXXXX......            ",
"                  XXXXXXXXXXXXXXXXXXXXXXXXXXXXXXXXXXXXXXXXXXXXXXXXXXXXXXXXXXXX......            ",
"                  ooooooooooooXXXXXXXXXXXX............XXXXXXXXXXXXoooooooooooo......            ",
"                  ooooooooooooXXXXXXXXXXXX............XXXXXXXXXXXXoooooooooooo......            ",
"                  ooooooooooooXXXXXXXXXXXX............XXXXXXXXXXXXoooooooooooo......            ",
"                  ooooooooooooXXXXXXXXXXXX............XXXXXXXXXXXXoooooooooooo......            ",
"                  ooooooooooooXXXXXXXXXXXX............XXXXXXXXXXXXoooooooooooo......            ",
"                  ooooooooooooXXXXXXXXXXXX............XXXXXXXXXXXXoooooooooooo......            ",
"      ..............................XXXXXXXXXXXXXXXXXXXXXXXXoooooooooooo..................      ",
"      ..............................XXXXXXXXXXXXXXXXXXXXXXXXoooooooooooo..................      ",
"      ..............................XXXXXXXXXXXXXXXXXXXXXXXXoooooooooooo..................      ",
"      ..............................XXXXXXXXXXXXXXXXXXXXXXXXoooooooooooo..................      ",
"      ..............................XXXXXXXXXXXXXXXXXXXXXXXXoooooooooooo..................      ",
"      ..............................XXXXXXXXXXXXXXXXXXXXXXXXoooooooooooo..................      ",
"............XXXXXX........................ooooooooooooooooooooooooooooooXXXXXX............      ",
"............XXXXXX........................ooooooooooooooooooooooooooooooXXXXXX............      ",
"............XXXXXX........................ooooooooooooooooooooooooooooooXXXXXX............      ",
"............XXXXXX........................ooooooooooooooooooooooooooooooXXXXXX............      ",
"............XXXXXX........................ooooooooooooooooooooooooooooooXXXXXX............      ",
"............XXXXXX........................ooooooooooooooooooooooooooooooXXXXXX............      ",
"......XXXXXXXXXXXXXXXXXX............XXXXXX............ooooooooooooXXXXXXXXXXXXXXXXXX......      ",
"......XXXXXXXXXXXXXXXXXX............XXXXXX............ooooooooooooXXXXXXXXXXXXXXXXXX......      ",
"......XXXXXXXXXXXXXXXXXX............XXXXXX............ooooooooooooXXXXXXXXXXXXXXXXXX......      ",
"......XXXXXXXXXXXXXXXXXX............XXXXXX............ooooooooooooXXXXXXXXXXXXXXXXXX......      ",
"......XXXXXXXXXXXXXXXXXX............XXXXXX............ooooooooooooXXXXXXXXXXXXXXXXXX......      ",
"......XXXXXXXXXXXXXXXXXX............XXXXXX............ooooooooooooXXXXXXXXXXXXXXXXXX......      ",
"............XXXXXX..................XXXXXXoooooo........................XXXXXXXXXXXXXXXXXX      ",
"............XXXXXX..................XXXXXXoooooo........................XXXXXXXXXXXXXXXXXX      ",
"............XXXXXX..................XXXXXXoooooo........................XXXXXXXXXXXXXXXXXX      ",
"............XXXXXX..................XXXXXXoooooo........................XXXXXXXXXXXXXXXXXX      ",
"............XXXXXX..................XXXXXXoooooo........................XXXXXXXXXXXXXXXXXX      ",
"............XXXXXX..................XXXXXXoooooo........................XXXXXXXXXXXXXXXXXX      ",
"............XXXXXX..................XXXXXX............ooooooooooooooooooooooooXXXXXX            ",
"............XXXXXX..................XXXXXX............ooooooooooooooooooooooooXXXXXX            ",
"............XXXXXX..................XXXXXX............ooooooooooooooooooooooooXXXXXX            ",
"............XXXXXX..................XXXXXX............ooooooooooooooooooooooooXXXXXX            ",
"............XXXXXX..................XXXXXX............ooooooooooooooooooooooooXXXXXX            ",
"............XXXXXX..................XXXXXX............ooooooooooooooooooooooooXXXXXX            ",
"....................................XXXXXXoooooooooooooooooooooooooooooo                        ",
"....................................XXXXXXoooooooooooooooooooooooooooooo                        ",
"....................................XXXXXXoooooooooooooooooooooooooooooo                        ",
"....................................XXXXXXoooooooooooooooooooooooooooooo                        ",
"....................................XXXXXXoooooooooooooooooooooooooooooo                        ",
"....................................XXXXXXoooooooooooooooooooooooooooooo                        ",
"      XXXXXXXXXXXXXXXXXXXXXXXXXXXXXX......            ..................                        ",
"      XXXXXXXXXXXXXXXXXXXXXXXXXXXXXX......            ..................                        ",
"      XXXXXXXXXXXXXXXXXXXXXXXXXXXXXX......            ..................                        ",
"      XXXXXXXXXXXXXXXXXXXXXXXXXXXXXX......            ..................                        ",
"      XXXXXXXXXXXXXXXXXXXXXXXXXXXXXX......            ..................                        ",
"      XXXXXXXXXXXXXXXXXXXXXXXXXXXXXX......            ..................                        ",
"                        ..................                                                      ",
"                        ..................                                                      ",
"                        ..................                                                      ",
"                        ..................                                                      ",
"                        ..................                                                      ",
"                        ..................                                                      "
};
