/* XPM */
static char *_afd6f2592144e3ae39e1f8cae86d920Nw0dgv6EmI22Wjvp[] = {
/* columns rows colors chars-per-pixel */
"96 96 4 1 ",
"  c None",
". c black",
"X c #676767",
"o c white",
/* pixels */
"                                             XXXXXX                                             ",
"                                             XXXXXX                                             ",
"                                             XXXXXX                                             ",
"                                    .........XXXXXX.........                                    ",
"                                    .........XXXXXX.........                                    ",
"                                    .........XXXXXX.........                                    ",
"                                    ...ooooooXXXXXXoooooo...                                    ",
"                                    ...ooooooXXXXXXoooooo...                                    ",
"                                    ...ooooooXXXXXXoooooo...                                    ",
"                                    ...ooooooXXXXXXoooooo...                                    ",
"                                    ...ooooooXXXXXXoooooo...                                    ",
"                                    ...ooooooXXXXXXoooooo...                                    ",
"                                    ...oooXXXXXXXXXXXXooo...                                    ",
"                                    ...oooXXXXXXXXXXXXooo...                                    ",
"                                    ...oooXXXXXXXXXXXXooo...                                    ",
"                                    ...oooXXXXXXXXXXXXooo...                                    ",
"                                    ...oooXXXXXXXXXXXXooo...                                    ",
"                                    ...oooXXXXXXXXXXXXooo...                                    ",
"                                    ......XXXXXXXXXXXX......                                    ",
"                                    ......XXXXXXXXXXXX......                                    ",
"                                    ......XXXXXXXXXXXX......                                    ",
"                                 .........XXXXXXXXXXXX.........                                 ",
"                                 .........XXXXXXXXXXXX.........                                 ",
"                                 .........XXXXXXXXXXXX.........                                 ",
"                           ...............XXX......XXX...............                           ",
"                           ...............XXX......XXX...............                           ",
"                           ...............XXX......XXX...............                           ",
"                        .....................XXXXXX.....................                        ",
"                        .....................XXXXXX.....................                        ",
"                        .....................XXXXXX.....................                        ",
"                        ..................XXXXXXXXXXXX..................                        ",
"                        ..................XXXXXXXXXXXX..................                        ",
"                        ..................XXXXXXXXXXXX..................                        ",
"                     ..................XXXXXXXXXXXXXXXXXX..................                     ",
"                     ..................XXXXXXXXXXXXXXXXXX..................                     ",
"                     ..................XXXXXXXXXXXXXXXXXX..................                     ",
"   .................................XXX...XXXXXXXXXXXX...XXX.................................   ",
"   .................................XXX...XXXXXXXXXXXX...XXX.................................   ",
"   .................................XXX...XXXXXXXXXXXX...XXX.................................   ",
"   ...oooooooooooo...............XXXXXX......XXXXXX......XXXXXX...............oooooooooooo...   ",
"   ...oooooooooooo...............XXXXXX......XXXXXX......XXXXXX...............oooooooooooo...   ",
"   ...oooooooooooo...............XXXXXX......XXXXXX......XXXXXX...............oooooooooooo...   ",
"   ...ooooooXXXXXXXXXXXXXXX...XXXXXXXXXXXXXXXXXXXXXXXXXXXXXXXXXXXX...XXXXXXXXXXXXXXXoooooo...   ",
"   ...ooooooXXXXXXXXXXXXXXX...XXXXXXXXXXXXXXXXXXXXXXXXXXXXXXXXXXXX...XXXXXXXXXXXXXXXoooooo...   ",
"   ...ooooooXXXXXXXXXXXXXXX...XXXXXXXXXXXXXXXXXXXXXXXXXXXXXXXXXXXX...XXXXXXXXXXXXXXXoooooo...   ",
"XXXXXXXXXXXXXXXXXXXXXXXX...XXXXXXXXXXXX...XXXXXXXXXXXX...XXXXXXXXXXXX...XXXXXXXXXXXXXXXXXXXXXXXX",
"XXXXXXXXXXXXXXXXXXXXXXXX...XXXXXXXXXXXX...XXXXXXXXXXXX...XXXXXXXXXXXX...XXXXXXXXXXXXXXXXXXXXXXXX",
"XXXXXXXXXXXXXXXXXXXXXXXX...XXXXXXXXXXXX...XXXXXXXXXXXX...XXXXXXXXXXXX...XXXXXXXXXXXXXXXXXXXXXXXX",
"XXXXXXXXXXXXXXXXXXXXXXXX...XXXXXXXXXXXXXXXXXXXXXXXXXXXXXXXXXXXXXXXXXX...XXXXXXXXXXXXXXXXXXXXXXXX",
"XXXXXXXXXXXXXXXXXXXXXXXX...XXXXXXXXXXXXXXXXXXXXXXXXXXXXXXXXXXXXXXXXXX...XXXXXXXXXXXXXXXXXXXXXXXX",
"XXXXXXXXXXXXXXXXXXXXXXXX...XXXXXXXXXXXXXXXXXXXXXXXXXXXXXXXXXXXXXXXXXX...XXXXXXXXXXXXXXXXXXXXXXXX",
"   ...ooooooXXXXXXXXXXXXXXX...XXXXXXXXX..................XXXXXXXXX...XXXXXXXXXXXXXXXoooooo...   ",
"   ...ooooooXXXXXXXXXXXXXXX...XXXXXXXXX..................XXXXXXXXX...XXXXXXXXXXXXXXXoooooo...   ",
"   ...ooooooXXXXXXXXXXXXXXX...XXXXXXXXX..................XXXXXXXXX...XXXXXXXXXXXXXXXoooooo...   ",
"   ...oooooooooooo...............XXXXXX..................XXXXXX...............oooooooooooo...   ",
"   ...oooooooooooo...............XXXXXX..................XXXXXX...............oooooooooooo...   ",
"   ...oooooooooooo...............XXXXXX..................XXXXXX...............oooooooooooo...   ",
"   .................................XXXXXX............XXXXXX.................................   ",
"   .................................XXXXXX............XXXXXX.................................   ",
"   .................................XXXXXX............XXXXXX.................................   ",
"                     ..................XXXXXX......XXXXXX..................                     ",
"                     ..................XXXXXX......XXXXXX..................                     ",
"                     ..................XXXXXX......XXXXXX..................                     ",
"                        ..................XXXXXXXXXXXX..................                        ",
"                        ..................XXXXXXXXXXXX..................                        ",
"                        ..................XXXXXXXXXXXX..................                        ",
"                        .....................XXXXXX.....................                        ",
"                        .....................XXXXXX.....................                        ",
"                        .....................XXXXXX.....................                        ",
"                           ...............XXX......XXX...............                           ",
"                           ...............XXX......XXX...............                           ",
"                           ...............XXX......XXX...............                           ",
"                                 .........XXXXXXXXXXXX.........                                 ",
"                                 .........XXXXXXXXXXXX.........                                 ",
"                                 .........XXXXXXXXXXXX.........                                 ",
"                                    ......XXXXXXXXXXXX......                                    ",
"                                    ......XXXXXXXXXXXX......                                    ",
"                                    ......XXXXXXXXXXXX......                                    ",
"                                    ...oooXXXXXXXXXXXXooo...                                    ",
"                                    ...oooXXXXXXXXXXXXooo...                                    ",
"                                    ...oooXXXXXXXXXXXXooo...                                    ",
"                                    ...oooXXXXXXXXXXXXooo...                                    ",
"                                    ...oooXXXXXXXXXXXXooo...                                    ",
"                                    ...oooXXXXXXXXXXXXooo...                                    ",
"                                    ...ooooooXXXXXXoooooo...                                    ",
"                                    ...ooooooXXXXXXoooooo...                                    ",
"                                    ...ooooooXXXXXXoooooo...                                    ",
"                                    ...ooooooXXXXXXoooooo...                                    ",
"                                    ...ooooooXXXXXXoooooo...                                    ",
"                                    ...ooooooXXXXXXoooooo...                                    ",
"                                    .........XXXXXX.........                                    ",
"                                    .........XXXXXX.........                                    ",
"                                    .........XXXXXX.........                                    ",
"                                             XXXXXX                                             ",
"                                             XXXXXX                                             ",
"                                             XXXXXX                                             "
};
