/* XPM */
static char *_051d7913dd548708aebc7e4565697dbtldsaEvBrZPsIsGG[] = {
/* columns rows colors chars-per-pixel */
"96 96 5 1 ",
"  c black",
". c #277082",
"X c #338FA6",
"o c #4BACC4",
"O c #95CDDB",
/* pixels */
"...OOOOOOOOOOOOOOOOOOOOOOOOOOOOOOOOOOOOOOOOOOOOOOOOOOOOOOOOOOOOOOOOOOOOOOOOOOOOOOOOOOOOOOOOOO...",
"...OOOOOOOOOOOOOOOOOOOOOOOOOOOOOOOOOOOOOOOOOOOOOOOOOOOOOOOOOOOOOOOOOOOOOOOOOOOOOOOOOOOOOOOOOO...",
"...OOOOOOOOOOOOOOOOOOOOOOOOOOOOOOOOOOOOOOOOOOOOOOOOOOOOOOOOOOOOOOOOOOOOOOOOOOOOOOOOOOOOOOOOOO...",
"OOO                                                                                          OOO",
"OOO                                                                                          OOO",
"OOO                                                                                          OOO",
"OOO                                                                                          OOO",
"OOO                                                                                          OOO",
"OOO                                                                                          OOO",
"OOO                                                                                          OOO",
"OOO                                                                                          OOO",
"OOO                                                                                          OOO",
"OOO                                                                                          OOO",
"OOO                                                                                          OOO",
"OOOooooooooooooooooo...X                                                                     OOO",
"OOOooooooooooooooooo...X                                                                     OOO",
"OOOooooooooooooooooo...X                                                                     OOO",
"OOOoooooooooooooooooXXXX                                                                     OOO",
"OOOoooooooooooooooooXXXX                                                                     OOO",
"OOOoooooooooooooooooXXXX                                                                     OOO",
"OOOoooooooooooooooooXXXX                                                                     OOO",
"OOOoooooooooooooooooXXXX                                                                     OOO",
"OOOoooooooooooooooooXXXX                                                                     OOO",
"OOOoooooooooooooooooXXXX                                                                     OOO",
"OOOoooooooooooooooooXXXXooooooooooooo...X                                                    OOO",
"OOOoooooooooooooooooXXXXooooooooooooo...X                                                    OOO",
"OOOoooooooooooooooooXXXXooooooooooooo...X                                                    OOO",
"OOOoooooooooooooooooXXXXoooooooooooooXXXX                                                    OOO",
"OOOoooooooooooooooooXXXXoooooooooooooXXXX                                                    OOO",
"OOOoooooooooooooooooXXXXoooooooooooooXXXX                                                    OOO",
"OOOoooooooooooooooooXXXXoooooooooooooXXXX                                                    OOO",
"OOOoooooooooooooooooXXXXoooooooooooooXXXX                                                    OOO",
"OOOoooooooooooooooooXXXXoooooooooooooXXXX                                                    OOO",
"OOOoooooooooooooooooXXXXoooooooooooooXXXX                                                    OOO",
"OOOoooooooooooooooooXXXXoooooooooooooXXXX                                                    OOO",
"OOOoooooooooooooooooXXXXoooooooooooooXXXX                                                    OOO",
"OOOoooooooooooooooooXXXXoooooooooooooXXXX                                                    OOO",
"OOOoooooooooooooooooXXXXoooooooooooooXXXXooooooooooooooo...X                                 OOO",
"OOOoooooooooooooooooXXXXoooooooooooooXXXXooooooooooooooo...X                                 OOO",
"OOOoooooooooooooooooXXXXoooooooooooooXXXXooooooooooooooo...X                                 OOO",
"OOOoooooooooooooooooXXXXoooooooooooooXXXXoooooooooooooooXXXX                                 OOO",
"OOOoooooooooooooooooXXXXoooooooooooooXXXXoooooooooooooooXXXX                                 OOO",
"OOOoooooooooooooooooXXXXoooooooooooooXXXXoooooooooooooooXXXX                                 OOO",
"OOOoooooooooooooooooXXXXoooooooooooooXXXXoooooooooooooooXXXX                                 OOO",
"OOOoooooooooooooooooXXXXoooooooooooooXXXXoooooooooooooooXXXX                                 OOO",
"OOOoooooooooooooooooXXXXoooooooooooooXXXXoooooooooooooooXXXX                                 OOO",
"OOOoooooooooooooooooXXXXoooooooooooooXXXXoooooooooooooooXXXX                                 OOO",
"OOOoooooooooooooooooXXXXoooooooooooooXXXXoooooooooooooooXXXX                                 OOO",
"OOOoooooooooooooooooXXXXoooooooooooooXXXXoooooooooooooooXXXX                                 OOO",
"OOOoooooooooooooooooXXXXoooooooooooooXXXXoooooooooooooooXXXX                                 OOO",
"OOOoooooooooooooooooXXXXoooooooooooooXXXXoooooooooooooooXXXX                                 OOO",
"OOOoooooooooooooooooXXXXoooooooooooooXXXXoooooooooooooooXXXXoooooooooooooo...X               OOO",
"OOOoooooooooooooooooXXXXoooooooooooooXXXXoooooooooooooooXXXXoooooooooooooo...X               OOO",
"OOOoooooooooooooooooXXXXoooooooooooooXXXXoooooooooooooooXXXXoooooooooooooo...X               OOO",
"OOOoooooooooooooooooXXXXoooooooooooooXXXXoooooooooooooooXXXXooooooooooooooXXXX               OOO",
"OOOoooooooooooooooooXXXXoooooooooooooXXXXoooooooooooooooXXXXooooooooooooooXXXX               OOO",
"OOOoooooooooooooooooXXXXoooooooooooooXXXXoooooooooooooooXXXXooooooooooooooXXXX               OOO",
"OOOoooooooooooooooooXXXXoooooooooooooXXXXoooooooooooooooXXXXooooooooooooooXXXX               OOO",
"OOOoooooooooooooooooXXXXoooooooooooooXXXXoooooooooooooooXXXXooooooooooooooXXXX               OOO",
"OOOoooooooooooooooooXXXXoooooooooooooXXXXoooooooooooooooXXXXooooooooooooooXXXX               OOO",
"OOOoooooooooooooooooXXXXoooooooooooooXXXXoooooooooooooooXXXXooooooooooooooXXXX               OOO",
"OOOoooooooooooooooooXXXXoooooooooooooXXXXoooooooooooooooXXXXooooooooooooooXXXX               OOO",
"OOOoooooooooooooooooXXXXoooooooooooooXXXXoooooooooooooooXXXXooooooooooooooXXXX               OOO",
"OOOoooooooooooooooooXXXXoooooooooooooXXXXoooooooooooooooXXXXooooooooooooooXXXX               OOO",
"OOOoooooooooooooooooXXXXoooooooooooooXXXXoooooooooooooooXXXXooooooooooooooXXXX               OOO",
"OOOoooooooooooooooooXXXXoooooooooooooXXXXoooooooooooooooXXXXooooooooooooooXXXXoooooooooooo...OOO",
"OOOoooooooooooooooooXXXXoooooooooooooXXXXoooooooooooooooXXXXooooooooooooooXXXXoooooooooooo...OOO",
"OOOoooooooooooooooooXXXXoooooooooooooXXXXoooooooooooooooXXXXooooooooooooooXXXXoooooooooooo...OOO",
"OOOoooooooooooooooooXXXXoooooooooooooXXXXoooooooooooooooXXXXooooooooooooooXXXXoooooooooooooooOOO",
"OOOoooooooooooooooooXXXXoooooooooooooXXXXoooooooooooooooXXXXooooooooooooooXXXXoooooooooooooooOOO",
"OOOoooooooooooooooooXXXXoooooooooooooXXXXoooooooooooooooXXXXooooooooooooooXXXXoooooooooooooooOOO",
"OOOoooooooooooooooooXXXXoooooooooooooXXXXoooooooooooooooXXXXooooooooooooooXXXXoooooooooooooooOOO",
"OOOoooooooooooooooooXXXXoooooooooooooXXXXoooooooooooooooXXXXooooooooooooooXXXXoooooooooooooooOOO",
"OOOoooooooooooooooooXXXXoooooooooooooXXXXoooooooooooooooXXXXooooooooooooooXXXXoooooooooooooooOOO",
"OOOoooooooooooooooooXXXXoooooooooooooXXXXoooooooooooooooXXXXooooooooooooooXXXXoooooooooooooooOOO",
"OOOoooooooooooooooooXXXXoooooooooooooXXXXoooooooooooooooXXXXooooooooooooooXXXXoooooooooooooooOOO",
"OOOoooooooooooooooooXXXXoooooooooooooXXXXoooooooooooooooXXXXooooooooooooooXXXXoooooooooooooooOOO",
"OOOoooooooooooooooooXXXXoooooooooooooXXXXoooooooooooooooXXXXooooooooooooooXXXXoooooooooooooooOOO",
"OOOoooooooooooooooooXXXXoooooooooooooXXXXoooooooooooooooXXXXooooooooooooooXXXXoooooooooooooooOOO",
"OOOoooooooooooooooooXXXXoooooooooooooXXXXoooooooooooooooXXXXooooooooooooooXXXXoooooooooooooooOOO",
"OOOoooooooooooooooooXXXXoooooooooooooXXXXoooooooooooooooXXXXooooooooooooooXXXXoooooooooooooooOOO",
"OOOoooooooooooooooooXXXXoooooooooooooXXXXoooooooooooooooXXXXooooooooooooooXXXXoooooooooooooooOOO",
"OOOoooooooooooooooooXXXXoooooooooooooXXXXoooooooooooooooXXXXooooooooooooooXXXXoooooooooooooooOOO",
"OOOoooooooooooooooooXXXXoooooooooooooXXXXoooooooooooooooXXXXooooooooooooooXXXXoooooooooooooooOOO",
"OOOoooooooooooooooooXXXXoooooooooooooXXXXoooooooooooooooXXXXooooooooooooooXXXXoooooooooooooooOOO",
"OOOoooooooooooooooooXXXXoooooooooooooXXXXoooooooooooooooXXXXooooooooooooooXXXXoooooooooooooooOOO",
"OOOoooooooooooooooooXXXXoooooooooooooXXXXoooooooooooooooXXXXooooooooooooooXXXXoooooooooooooooOOO",
"OOOoooooooooooooooooXXXXoooooooooooooXXXXoooooooooooooooXXXXooooooooooooooXXXXoooooooooooooooOOO",
"OOOoooooooooooooooooXXXXoooooooooooooXXXXoooooooooooooooXXXXooooooooooooooXXXXoooooooooooooooOOO",
"OOOoooooooooooooooooXXXXoooooooooooooXXXXoooooooooooooooXXXXooooooooooooooXXXXoooooooooooooooOOO",
"OOOoooooooooooooooooXXXXoooooooooooooXXXXoooooooooooooooXXXXooooooooooooooXXXXoooooooooooooooOOO",
"OOOoooooooooooooooooXXXXoooooooooooooXXXXoooooooooooooooXXXXooooooooooooooXXXXoooooooooooooooOOO",
"OOOoooooooooooooooooXXXXoooooooooooooXXXXoooooooooooooooXXXXooooooooooooooXXXXoooooooooooooooOOO",
"...OOOOOOOOOOOOOOOOOOOOOOOOOOOOOOOOOOOOOOOOOOOOOOOOOOOOOOOOOOOOOOOOOOOOOOOOOOOOOOOOOOOOOOOOOO...",
"...OOOOOOOOOOOOOOOOOOOOOOOOOOOOOOOOOOOOOOOOOOOOOOOOOOOOOOOOOOOOOOOOOOOOOOOOOOOOOOOOOOOOOOOOOO...",
"...OOOOOOOOOOOOOOOOOOOOOOOOOOOOOOOOOOOOOOOOOOOOOOOOOOOOOOOOOOOOOOOOOOOOOOOOOOOOOOOOOOOOOOOOOO..."
};
