/* XPM */
static char *d999f64b08634b48b4cdf98319a920f2eTGxnyYbDTi2u3mR[] = {
/* columns rows colors chars-per-pixel */
"96 96 4 1 ",
"  c None",
". c #C84C0C",
"X c #FC9838",
"o c #80D010",
/* pixels */
"                                          oooooooooooooooooooooooo                              ",
"                                          oooooooooooooooooooooooo                              ",
"                                          oooooooooooooooooooooooo                              ",
"                                          oooooooooooooooooooooooo                              ",
"                                          oooooooooooooooooooooooo                              ",
"                                          oooooooooooooooooooooooo                              ",
"                        ........................oooooooooooooooooooooooooooooo                  ",
"                        ........................oooooooooooooooooooooooooooooo                  ",
"                        ........................oooooooooooooooooooooooooooooo                  ",
"                        ........................oooooooooooooooooooooooooooooo                  ",
"                        ........................oooooooooooooooooooooooooooooo                  ",
"                        ........................oooooooooooooooooooooooooooooo                  ",
"                  ....................................ooooooooooooXXXXXXoooooooooooooooooo      ",
"                  ....................................ooooooooooooXXXXXXoooooooooooooooooo      ",
"                  ....................................ooooooooooooXXXXXXoooooooooooooooooo      ",
"                  ....................................ooooooooooooXXXXXXoooooooooooooooooo      ",
"                  ....................................ooooooooooooXXXXXXoooooooooooooooooo      ",
"                  ....................................ooooooooooooXXXXXXoooooooooooooooooo      ",
"                        ....................................XXXXXXXXXXXXoooooooooooooooooooooooo",
"                        ....................................XXXXXXXXXXXXoooooooooooooooooooooooo",
"                        ....................................XXXXXXXXXXXXoooooooooooooooooooooooo",
"                        ....................................XXXXXXXXXXXXoooooooooooooooooooooooo",
"                        ....................................XXXXXXXXXXXXoooooooooooooooooooooooo",
"                        ....................................XXXXXXXXXXXXoooooooooooooooooooooooo",
"      ......            XXXXXXooooooXXXXXXXXXXXX......XXXXXXXXXXXXXXXXXXoooooooooooo      oooooo",
"      ......            XXXXXXooooooXXXXXXXXXXXX......XXXXXXXXXXXXXXXXXXoooooooooooo      oooooo",
"      ......            XXXXXXooooooXXXXXXXXXXXX......XXXXXXXXXXXXXXXXXXoooooooooooo      oooooo",
"      ......            XXXXXXooooooXXXXXXXXXXXX......XXXXXXXXXXXXXXXXXXoooooooooooo      oooooo",
"      ......            XXXXXXooooooXXXXXXXXXXXX......XXXXXXXXXXXXXXXXXXoooooooooooo      oooooo",
"      ......            XXXXXXooooooXXXXXXXXXXXX......XXXXXXXXXXXXXXXXXXoooooooooooo      oooooo",
"      ......XXXXXXXXXXXXXXXXXX......XXXXXXXXXXXX......XXXXXXXXXXXX............oooooo            ",
"      ......XXXXXXXXXXXXXXXXXX......XXXXXXXXXXXX......XXXXXXXXXXXX............oooooo            ",
"      ......XXXXXXXXXXXXXXXXXX......XXXXXXXXXXXX......XXXXXXXXXXXX............oooooo            ",
"      ......XXXXXXXXXXXXXXXXXX......XXXXXXXXXXXX......XXXXXXXXXXXX............oooooo            ",
"      ......XXXXXXXXXXXXXXXXXX......XXXXXXXXXXXX......XXXXXXXXXXXX............oooooo            ",
"      ......XXXXXXXXXXXXXXXXXX......XXXXXXXXXXXX......XXXXXXXXXXXX............oooooo            ",
"      ......            XXXXXXXXXXXXXXXXXXXXXXXXXXXXXXXXXXXX..................                  ",
"      ......            XXXXXXXXXXXXXXXXXXXXXXXXXXXXXXXXXXXX..................                  ",
"      ......            XXXXXXXXXXXXXXXXXXXXXXXXXXXXXXXXXXXX..................                  ",
"      ......            XXXXXXXXXXXXXXXXXXXXXXXXXXXXXXXXXXXX..................                  ",
"      ......            XXXXXXXXXXXXXXXXXXXXXXXXXXXXXXXXXXXX..................                  ",
"      ......            XXXXXXXXXXXXXXXXXXXXXXXXXXXXXXXXXXXX..................                  ",
"      ......            XXXXXXXXXXXXXXXXXXXXXXXXoooooooooooooooooooooooo                        ",
"      ......            XXXXXXXXXXXXXXXXXXXXXXXXoooooooooooooooooooooooo                        ",
"      ......            XXXXXXXXXXXXXXXXXXXXXXXXoooooooooooooooooooooooo                        ",
"      ......            XXXXXXXXXXXXXXXXXXXXXXXXoooooooooooooooooooooooo                        ",
"      ......            XXXXXXXXXXXXXXXXXXXXXXXXoooooooooooooooooooooooo                        ",
"      ......            XXXXXXXXXXXXXXXXXXXXXXXXoooooooooooooooooooooooo                        ",
"      ......XXXXXX..................oooooooooooooooooooooooooooooooooooooooooo......            ",
"      ......XXXXXX..................oooooooooooooooooooooooooooooooooooooooooo......            ",
"      ......XXXXXX..................oooooooooooooooooooooooooooooooooooooooooo......            ",
"      ......XXXXXX..................oooooooooooooooooooooooooooooooooooooooooo......            ",
"      ......XXXXXX..................oooooooooooooooooooooooooooooooooooooooooo......            ",
"      ......XXXXXX..................oooooooooooooooooooooooooooooooooooooooooo......            ",
"      ......XXXXXX............ooooooooooooooooooXXXXXXXXXXXXXXXXXXoooooo..................      ",
"      ......XXXXXX............ooooooooooooooooooXXXXXXXXXXXXXXXXXXoooooo..................      ",
"      ......XXXXXX............ooooooooooooooooooXXXXXXXXXXXXXXXXXXoooooo..................      ",
"      ......XXXXXX............ooooooooooooooooooXXXXXXXXXXXXXXXXXXoooooo..................      ",
"      ......XXXXXX............ooooooooooooooooooXXXXXXXXXXXXXXXXXXoooooo..................      ",
"      ......XXXXXX............ooooooooooooooooooXXXXXXXXXXXXXXXXXXoooooo..................      ",
"      ......      ............ooooooooooooooooooXXXXXXXXXXXXXXXXXX........................      ",
"      ......      ............ooooooooooooooooooXXXXXXXXXXXXXXXXXX........................      ",
"      ......      ............ooooooooooooooooooXXXXXXXXXXXXXXXXXX........................      ",
"      ......      ............ooooooooooooooooooXXXXXXXXXXXXXXXXXX........................      ",
"      ......      ............ooooooooooooooooooXXXXXXXXXXXXXXXXXX........................      ",
"      ......      ............ooooooooooooooooooXXXXXXXXXXXXXXXXXX........................      ",
"      ......                  ......ooooooooooooooooooXXXXXXXXXXXX........................      ",
"      ......                  ......ooooooooooooooooooXXXXXXXXXXXX........................      ",
"      ......                  ......ooooooooooooooooooXXXXXXXXXXXX........................      ",
"      ......                  ......ooooooooooooooooooXXXXXXXXXXXX........................      ",
"      ......                  ......ooooooooooooooooooXXXXXXXXXXXX........................      ",
"      ......                  ......ooooooooooooooooooXXXXXXXXXXXX........................      ",
"      ......                  ........................oooooooooooo............oooooo            ",
"      ......                  ........................oooooooooooo............oooooo            ",
"      ......                  ........................oooooooooooo............oooooo            ",
"      ......                  ........................oooooooooooo............oooooo            ",
"      ......                  ........................oooooooooooo............oooooo            ",
"      ......                  ........................oooooooooooo............oooooo            ",
"                              oooooooooooooooooooooooooooooooooooooooooooooooooooooooooooo      ",
"                              oooooooooooooooooooooooooooooooooooooooooooooooooooooooooooo      ",
"                              oooooooooooooooooooooooooooooooooooooooooooooooooooooooooooo      ",
"                              oooooooooooooooooooooooooooooooooooooooooooooooooooooooooooo      ",
"                              oooooooooooooooooooooooooooooooooooooooooooooooooooooooooooo      ",
"                              oooooooooooooooooooooooooooooooooooooooooooooooooooooooooooo      ",
"                                                ........................                        ",
"                                                ........................                        ",
"                                                ........................                        ",
"                                                ........................                        ",
"                                                ........................                        ",
"                                                ........................                        ",
"                                          ..............................                        ",
"                                          ..............................                        ",
"                                          ..............................                        ",
"                                          ..............................                        ",
"                                          ..............................                        ",
"                                          ..............................                        "
};
