/* XPM */
static char *_26fa0d4f9a94d9a828165ed3d0267d5raEYk4uCwcMnTB5q[] = {
/* columns rows colors chars-per-pixel */
"96 96 4 1 ",
"  c None",
". c #C84C0C",
"X c #FC9838",
"o c #80D010",
/* pixels */
"                                                                                                ",
"                                                                                                ",
"                                                                                                ",
"                                                                                                ",
"                                                                                                ",
"                                                                                                ",
"                              oooooooooooooooooooooooo                                          ",
"                              oooooooooooooooooooooooo                                          ",
"                              oooooooooooooooooooooooo                                          ",
"                              oooooooooooooooooooooooo                                          ",
"                              oooooooooooooooooooooooo                                          ",
"                              oooooooooooooooooooooooo                                          ",
"                  oooooooooooooooooooooooooooooo........................                        ",
"                  oooooooooooooooooooooooooooooo........................                        ",
"                  oooooooooooooooooooooooooooooo........................                        ",
"                  oooooooooooooooooooooooooooooo........................                        ",
"                  oooooooooooooooooooooooooooooo........................                        ",
"                  oooooooooooooooooooooooooooooo........................                        ",
"      ooooooooooooooooooXXXXXXoooooooooooo....................................                  ",
"      ooooooooooooooooooXXXXXXoooooooooooo....................................                  ",
"      ooooooooooooooooooXXXXXXoooooooooooo....................................                  ",
"      ooooooooooooooooooXXXXXXoooooooooooo....................................                  ",
"      ooooooooooooooooooXXXXXXoooooooooooo....................................                  ",
"      ooooooooooooooooooXXXXXXoooooooooooo....................................                  ",
"ooooooooooooooooooooooooXXXXXXXXXXXX....................................                        ",
"ooooooooooooooooooooooooXXXXXXXXXXXX....................................                        ",
"ooooooooooooooooooooooooXXXXXXXXXXXX....................................                        ",
"ooooooooooooooooooooooooXXXXXXXXXXXX....................................                        ",
"ooooooooooooooooooooooooXXXXXXXXXXXX....................................                        ",
"ooooooooooooooooooooooooXXXXXXXXXXXX....................................                        ",
"oooooo      ooooooooooooXXXXXXXXXXXXXXXXXX......XXXXXXXXXXXXooooooXXXXXX                        ",
"oooooo      ooooooooooooXXXXXXXXXXXXXXXXXX......XXXXXXXXXXXXooooooXXXXXX                        ",
"oooooo      ooooooooooooXXXXXXXXXXXXXXXXXX......XXXXXXXXXXXXooooooXXXXXX                        ",
"oooooo      ooooooooooooXXXXXXXXXXXXXXXXXX......XXXXXXXXXXXXooooooXXXXXX                        ",
"oooooo      ooooooooooooXXXXXXXXXXXXXXXXXX......XXXXXXXXXXXXooooooXXXXXX                        ",
"oooooo      ooooooooooooXXXXXXXXXXXXXXXXXX......XXXXXXXXXXXXooooooXXXXXX                        ",
"            oooooo............XXXXXXXXXXXX......XXXXXXXXXXXX......XXXXXXXXXXXXXXXXXX            ",
"            oooooo............XXXXXXXXXXXX......XXXXXXXXXXXX......XXXXXXXXXXXXXXXXXX            ",
"            oooooo............XXXXXXXXXXXX......XXXXXXXXXXXX......XXXXXXXXXXXXXXXXXX            ",
"            oooooo............XXXXXXXXXXXX......XXXXXXXXXXXX......XXXXXXXXXXXXXXXXXX            ",
"            oooooo............XXXXXXXXXXXX......XXXXXXXXXXXX......XXXXXXXXXXXXXXXXXX            ",
"            oooooo............XXXXXXXXXXXX......XXXXXXXXXXXX......XXXXXXXXXXXXXXXXXX            ",
"                  ..................XXXXXXXXXXXXXXXXXXXXXXXXXXXXXXXXXXXX      ......            ",
"                  ..................XXXXXXXXXXXXXXXXXXXXXXXXXXXXXXXXXXXX      ......            ",
"                  ..................XXXXXXXXXXXXXXXXXXXXXXXXXXXXXXXXXXXX      ......            ",
"                  ..................XXXXXXXXXXXXXXXXXXXXXXXXXXXXXXXXXXXX      ......            ",
"                  ..................XXXXXXXXXXXXXXXXXXXXXXXXXXXXXXXXXXXX      ......            ",
"                  ..................XXXXXXXXXXXXXXXXXXXXXXXXXXXXXXXXXXXX      ......            ",
"                        ooooooooooooooooooooooooXXXXXXXXXXXXXXXXXXXXXXXX      ......            ",
"                        ooooooooooooooooooooooooXXXXXXXXXXXXXXXXXXXXXXXX      ......            ",
"                        ooooooooooooooooooooooooXXXXXXXXXXXXXXXXXXXXXXXX      ......            ",
"                        ooooooooooooooooooooooooXXXXXXXXXXXXXXXXXXXXXXXX      ......            ",
"                        ooooooooooooooooooooooooXXXXXXXXXXXXXXXXXXXXXXXX      ......            ",
"                        ooooooooooooooooooooooooXXXXXXXXXXXXXXXXXXXXXXXX      ......            ",
"            oooooo............ooooooooooooXXXXXXXXXXXXXXXXXX............XXXXXX......            ",
"            oooooo............ooooooooooooXXXXXXXXXXXXXXXXXX............XXXXXX......            ",
"            oooooo............ooooooooooooXXXXXXXXXXXXXXXXXX............XXXXXX......            ",
"            oooooo............ooooooooooooXXXXXXXXXXXXXXXXXX............XXXXXX......            ",
"            oooooo............ooooooooooooXXXXXXXXXXXXXXXXXX............XXXXXX......            ",
"            oooooo............ooooooooooooXXXXXXXXXXXXXXXXXX............XXXXXX......            ",
"            ..............................XXXXXXXXXXXXXXXXXXoooooo......XXXXXX......            ",
"            ..............................XXXXXXXXXXXXXXXXXXoooooo......XXXXXX......            ",
"            ..............................XXXXXXXXXXXXXXXXXXoooooo......XXXXXX......            ",
"            ..............................XXXXXXXXXXXXXXXXXXoooooo......XXXXXX......            ",
"            ..............................XXXXXXXXXXXXXXXXXXoooooo......XXXXXX......            ",
"            ..............................XXXXXXXXXXXXXXXXXXoooooo......XXXXXX......            ",
"      oooooo..............................XXXXXXXXXXXXoooooooooooo......      ......            ",
"      oooooo..............................XXXXXXXXXXXXoooooooooooo......      ......            ",
"      oooooo..............................XXXXXXXXXXXXoooooooooooo......      ......            ",
"      oooooo..............................XXXXXXXXXXXXoooooooooooo......      ......            ",
"      oooooo..............................XXXXXXXXXXXXoooooooooooo......      ......            ",
"      oooooo..............................XXXXXXXXXXXXoooooooooooo......      ......            ",
"      oooooooooooo........................oooooooooooooooooo......            ......            ",
"      oooooooooooo........................oooooooooooooooooo......            ......            ",
"      oooooooooooo........................oooooooooooooooooo......            ......            ",
"      oooooooooooo........................oooooooooooooooooo......            ......            ",
"      oooooooooooo........................oooooooooooooooooo......            ......            ",
"      oooooooooooo........................oooooooooooooooooo......            ......            ",
"............oooooooooooooooooooooooooooooo........................oooooo      ......            ",
"............oooooooooooooooooooooooooooooo........................oooooo      ......            ",
"............oooooooooooooooooooooooooooooo........................oooooo      ......            ",
"............oooooooooooooooooooooooooooooo........................oooooo      ......            ",
"............oooooooooooooooooooooooooooooo........................oooooo      ......            ",
"............oooooooooooooooooooooooooooooo........................oooooo      ......            ",
"..................oooooooooooooooooooooooooooooooooooooooooooooooo............                  ",
"..................oooooooooooooooooooooooooooooooooooooooooooooooo............                  ",
"..................oooooooooooooooooooooooooooooooooooooooooooooooo............                  ",
"..................oooooooooooooooooooooooooooooooooooooooooooooooo............                  ",
"..................oooooooooooooooooooooooooooooooooooooooooooooooo............                  ",
"..................oooooooooooooooooooooooooooooooooooooooooooooooo............                  ",
"      ..................                              ..................                        ",
"      ..................                              ..................                        ",
"      ..................                              ..................                        ",
"      ..................                              ..................                        ",
"      ..................                              ..................                        ",
"      ..................                              ..................                        "
};
