/* XPM */
static char *_14817096b234fccfbbfc69559add37bem9XBA7yiWXy8Vnr[] = {
/* columns rows colors chars-per-pixel */
"96 96 4 1 ",
"  c None",
". c #C84C0C",
"X c #FC9838",
"o c #80D010",
/* pixels */
"                              oooooooooooooooooooooooooooooooooooo                              ",
"                              oooooooooooooooooooooooooooooooooooo                              ",
"                              oooooooooooooooooooooooooooooooooooo                              ",
"                              oooooooooooooooooooooooooooooooooooo                              ",
"                              oooooooooooooooooooooooooooooooooooo                              ",
"                              oooooooooooooooooooooooooooooooooooo                              ",
"                        oooooooooooooooooooooooooooooooooooooooooooooooo                        ",
"                        oooooooooooooooooooooooooooooooooooooooooooooooo                        ",
"                        oooooooooooooooooooooooooooooooooooooooooooooooo                        ",
"                        oooooooooooooooooooooooooooooooooooooooooooooooo                        ",
"                        oooooooooooooooooooooooooooooooooooooooooooooooo                        ",
"                        oooooooooooooooooooooooooooooooooooooooooooooooo                        ",
"            XXXXXX      oooooooooooooooooooooooooooooooooooooooooooooooo      XXXXXX            ",
"            XXXXXX      oooooooooooooooooooooooooooooooooooooooooooooooo      XXXXXX            ",
"            XXXXXX      oooooooooooooooooooooooooooooooooooooooooooooooo      XXXXXX            ",
"            XXXXXX      oooooooooooooooooooooooooooooooooooooooooooooooo      XXXXXX            ",
"            XXXXXX      oooooooooooooooooooooooooooooooooooooooooooooooo      XXXXXX            ",
"            XXXXXX      oooooooooooooooooooooooooooooooooooooooooooooooo      XXXXXX            ",
"            XXXXXXooooooooooooooooooooooooooooooooooooooooooooooooooooooooooooXXXXXX            ",
"            XXXXXXooooooooooooooooooooooooooooooooooooooooooooooooooooooooooooXXXXXX            ",
"            XXXXXXooooooooooooooooooooooooooooooooooooooooooooooooooooooooooooXXXXXX            ",
"            XXXXXXooooooooooooooooooooooooooooooooooooooooooooooooooooooooooooXXXXXX            ",
"            XXXXXXooooooooooooooooooooooooooooooooooooooooooooooooooooooooooooXXXXXX            ",
"            XXXXXXooooooooooooooooooooooooooooooooooooooooooooooooooooooooooooXXXXXX            ",
"            XXXXXX......oooooooooooooooooooooooooooooooooooooooooooooooo......XXXXXX            ",
"            XXXXXX......oooooooooooooooooooooooooooooooooooooooooooooooo......XXXXXX            ",
"            XXXXXX......oooooooooooooooooooooooooooooooooooooooooooooooo......XXXXXX            ",
"            XXXXXX......oooooooooooooooooooooooooooooooooooooooooooooooo......XXXXXX            ",
"            XXXXXX......oooooooooooooooooooooooooooooooooooooooooooooooo......XXXXXX            ",
"            XXXXXX......oooooooooooooooooooooooooooooooooooooooooooooooo......XXXXXX            ",
"            XXXXXXXXXXXX............oooooooooooooooooooooooo............XXXXXXXXXXXX            ",
"            XXXXXXXXXXXX............oooooooooooooooooooooooo............XXXXXXXXXXXX            ",
"            XXXXXXXXXXXX............oooooooooooooooooooooooo............XXXXXXXXXXXX            ",
"            XXXXXXXXXXXX............oooooooooooooooooooooooo............XXXXXXXXXXXX            ",
"            XXXXXXXXXXXX............oooooooooooooooooooooooo............XXXXXXXXXXXX            ",
"            XXXXXXXXXXXX............oooooooooooooooooooooooo............XXXXXXXXXXXX            ",
"                  XXXXXX..................oooooooooooo..................XXXXXX                  ",
"                  XXXXXX..................oooooooooooo..................XXXXXX                  ",
"                  XXXXXX..................oooooooooooo..................XXXXXX                  ",
"                  XXXXXX..................oooooooooooo..................XXXXXX                  ",
"                  XXXXXX..................oooooooooooo..................XXXXXX                  ",
"                  XXXXXX..................oooooooooooo..................XXXXXX                  ",
"                  ......oooooo....................................oooooo......                  ",
"                  ......oooooo....................................oooooo......                  ",
"                  ......oooooo....................................oooooo......                  ",
"                  ......oooooo....................................oooooo......                  ",
"                  ......oooooo....................................oooooo......                  ",
"                  ......oooooo....................................oooooo......                  ",
"            ............oooooooooooooooooooooooooooooooooooooooooo............                  ",
"            ............oooooooooooooooooooooooooooooooooooooooooo............                  ",
"            ............oooooooooooooooooooooooooooooooooooooooooo............                  ",
"            ............oooooooooooooooooooooooooooooooooooooooooo............                  ",
"            ............oooooooooooooooooooooooooooooooooooooooooo............                  ",
"            ............oooooooooooooooooooooooooooooooooooooooooo............                  ",
"            ............oooooooooooooooooooooooooooooooooooooooooo............XXXXXX            ",
"            ............oooooooooooooooooooooooooooooooooooooooooo............XXXXXX            ",
"            ............oooooooooooooooooooooooooooooooooooooooooo............XXXXXX            ",
"            ............oooooooooooooooooooooooooooooooooooooooooo............XXXXXX            ",
"            ............oooooooooooooooooooooooooooooooooooooooooo............XXXXXX            ",
"            ............oooooooooooooooooooooooooooooooooooooooooo............XXXXXX            ",
"                  ............oooooooooooooooooooooooooooooooooooo............XXXXXX            ",
"                  ............oooooooooooooooooooooooooooooooooooo............XXXXXX            ",
"                  ............oooooooooooooooooooooooooooooooooooo............XXXXXX            ",
"                  ............oooooooooooooooooooooooooooooooooooo............XXXXXX            ",
"                  ............oooooooooooooooooooooooooooooooooooo............XXXXXX            ",
"                  ............oooooooooooooooooooooooooooooooooooo............XXXXXX            ",
"                  oooooooooooo....................................ooooooXXXXXXXXXXXX            ",
"                  oooooooooooo....................................ooooooXXXXXXXXXXXX            ",
"                  oooooooooooo....................................ooooooXXXXXXXXXXXX            ",
"                  oooooooooooo....................................ooooooXXXXXXXXXXXX            ",
"                  oooooooooooo....................................ooooooXXXXXXXXXXXX            ",
"                  oooooooooooo....................................ooooooXXXXXXXXXXXX            ",
"                  oooooooooooooooooooooooooooooooooooooooooooooooooooooooooooo                  ",
"                  oooooooooooooooooooooooooooooooooooooooooooooooooooooooooooo                  ",
"                  oooooooooooooooooooooooooooooooooooooooooooooooooooooooooooo                  ",
"                  oooooooooooooooooooooooooooooooooooooooooooooooooooooooooooo                  ",
"                  oooooooooooooooooooooooooooooooooooooooooooooooooooooooooooo                  ",
"                  oooooooooooooooooooooooooooooooooooooooooooooooooooooooooooo                  ",
"                  ..................oooooooooooooooooooooooooooooo......                        ",
"                  ..................oooooooooooooooooooooooooooooo......                        ",
"                  ..................oooooooooooooooooooooooooooooo......                        ",
"                  ..................oooooooooooooooooooooooooooooo......                        ",
"                  ..................oooooooooooooooooooooooooooooo......                        ",
"                  ..................oooooooooooooooooooooooooooooo......                        ",
"                  ........................            ............                              ",
"                  ........................            ............                              ",
"                  ........................            ............                              ",
"                  ........................            ............                              ",
"                  ........................            ............                              ",
"                  ........................            ............                              ",
"                        ............                                                            ",
"                        ............                                                            ",
"                        ............                                                            ",
"                        ............                                                            ",
"                        ............                                                            ",
"                        ............                                                            "
};
