/* XPM */
static char *f95acbf2ee71410df316943394e0e85dlah7ZxNRSjbGh8hx[] = {
/* columns rows colors chars-per-pixel */
"96 96 3 1 ",
"  c #338FA6",
". c #4BACC4",
"X c #95CDDB",
/* pixels */
"XXXXXXXXXXXXXXXXXXXXXXXXX         XXXXXXXXXXXXXXXXXXXXXXXXXXXXXXXXXXXXXXXXXXXXXXXXXXXXXXXXXXXXXX",
"XXXXXXXXXXXXXXXXXXXXXXXXX         XXXXXXXXXXXXXXXXXXXXXXXXXXXXXXXXXXXXXXXXXXXXXXXXXXXXXXXXXXXXXX",
"XXXXXXXXXXXXXXXXXXXXXXXXX         XXXXXXXXXXXXXXXXXXXXXXXXXXXXXXXXXXXXXXXXXXXXXXXXXXXXXXXXXXXXXX",
".........................XXX   ............................................XXX   ...............",
".........................XXX   ............................................XXX   ...............",
".........................XXX   ............................................XXX   ...............",
".........................XXX   .................................................................",
"...............XXXXXXX...XXX   .................................................................",
"...............XXXXXXX...XXX   .................................................................",
"...............XXXXXXX...XXX   .................................................................",
"............................   .................................................................",
"............................   ....................................................XXX   .......",
"............................   ....................................................XXX   .......",
".........................XXX   ....................................................XXX   .......",
".........................XXX   ....................................................XXX   .......",
".....XXX   ..............XXX   ....................................................XXX   .......",
".....XXX   .................   ....................................................XXX   .......",
".....XXX   .................   ....................................................XXX   .......",
"............................   ....................................................XXX   .......",
"............................   ....................................................XXX   .......",
"............................   ....................................................XXX   .......",
"............................   .................................................................",
"............................   .................................................................",
"............................   .................................................................",
"............................   .................................................................",
"............................   .................................................................",
"............................   .................................................................",
".........................         ...   ........................................................",
".........................         ...   ........................................................",
".........................         ...   ........................................................",
"                                                                                                ",
"                                                                                                ",
"                                                                                                ",
"XXXXXXXXXXXXXXXXXXXXXXXXXXXXXXXXXXXXXXXXXXXXXXXXXXXXXXXXXXXXXXX         XXXXXXXXXXXXXXXXXXXXXXXX",
"XXXXXXXXXXXXXXXXXXXXXXXXXXXXXXXXXXXXXXXXXXXXXXXXXXXXXXXXXXXXXXX         XXXXXXXXXXXXXXXXXXXXXXXX",
"XXXXXXXXXXXXXXXXXXXXXXXXXXXXXXXXXXXXXXXXXXXXXXXXXXXXXXXXXXXXXXX         XXXXXXXXXXXXXXXXXXXXXXXX",
"..................XXX.............................................   ...........................",
"..................XXX.............................................   ...........................",
"..................XXX.............................................   ...........................",
"..................................................................   ...........................",
"..................................................................   ...........................",
"..................................................................   ...........................",
"..................................................................   ...........................",
"..................................................................   ...................XXX.....",
"..................................................................   ...................XXX.....",
"..................................................................   ...................XXX.....",
"..................................................................   ...........................",
"..................................................................   ...........................",
"..................................................................   ...........................",
"..................................................................   ...........................",
"..................................................................   ...........................",
"..................................................................   ...........................",
"..................................................................   ...........XXX.............",
".......XXX       .................................................   ...........XXX.............",
".......XXX       .................................................   ...........XXX.............",
".......XXX       .................................................   ...........................",
"..................................................................   ...........................",
"..................................................................   ...........................",
"..................................................................   ...........................",
"..................................       ......................         ........................",
"..................................       ......................         ........................",
"..................................       ......................         ........................",
"                                                                                                ",
"                                                                                                ",
"                                                                                                ",
"XXXXXXXXXXXXXX         XXXXXXXXXXXXXXXXXXXXXXXXXXXXXXXXXXXXXXXXXXXXXXXXXXXXXXXXXXXXXXXXXXXXXXXXX",
"XXXXXXXXXXXXXX         XXXXXXXXXXXXXXXXXXXXXXXXXXXXXXXXXXXXXXXXXXXXXXXXXXXXXXXXXXXXXXXXXXXXXXXXX",
"XXXXXXXXXXXXXX         XXXXXXXXXXXXXXXXXXXXXXXXXXXXXXXXXXXXXXXXXXXXXXXXXXXXXXXXXXXXXXXXXXXXXXXXX",
"..............XXX   ...........................................XXX   ...........................",
"..............XXX   ...........................................XXX   ...........................",
"..............XXX   ...........................................XXX   ...........................",
"..............XXX   ............................................................................",
"..............XXX   ............................................................................",
"..............XXX   ............................................................................",
"..............XXX   ............................................................................",
".................   ............................................................................",
".................   ............................................................................",
".................   ............................................................................",
".................   ............................................................................",
"...XXX...........   ......................................................XXXXXXX   ............",
"...XXX...........   ......................................................XXXXXXX   ............",
"...XXX...........   ......................................................XXXXXXX   ............",
".................   ............................................................................",
".................   ............................................................................",
".................   ............................................................................",
".................   ............................................................................",
".................   ............................................................................",
".................   ............................................................................",
".................   ............................................................................",
".................   ............................................................................",
".................   ............................................................................",
".................   ............................................................................",
".................   ............................................................................",
"                                                                                                ",
"                                                                                                ",
"                                                                                                "
};
