/* XPM */
static char *result[] = {
/* columns rows colors chars-per-pixel */
"96 96 5 1 ",
"  c black",
". c #277082",
"X c #338FA6",
"o c #4BACC4",
"O c #95CDDB",
/* pixels */
"...OOOOOOOOOOOOOOOOOOOOOOOOOOOOOOOOOOOOOOOOOOOOOOOOOOOOOOOOOOOOOOOOOOOOOOOOOOOOOOOOOOOOOOOOOOX..",
"...OOOOOOOOOOOOOOOOOOOOOOOOOOOOOOOOOOOOOOOOOOOOOOOOOOOOOOOOOOOOOOOOOOOOOOOOOOOOOOOOOOOOOOOOOOX..",
"...OOOOOOOOOOOOOOOOOOOOOOOOOOOOOOOOOOOOOOOOOOOOOOOOOOOOOOOOOOOOOOOOOOOOOOOOOOOOOOOOOOOOOOOOOOX..",
"OOO XX....XXXX....OOO........................OOOOOOO........................OOO....XXXX....XXXOO",
"OOO XX....XXXX....OOOOOOOOOOOOOOOOOOOOOOOOOOOOOOOOOOOOOOOOOOOOOOOOOOOOOOOOOOOOO....XXXX....XXXOO",
"OOO XX....XXXX....OOOOOOOOOOOOOOOOOOOOOOOOOOOOOOOOOOOOOOOOOOOOOOOOOOOOOOOOOOOOO....XXXX....XXXOO",
"OOO XX....XXXX....OOOOOOOOOOOOOOOOOOOOOOOOOOOOOOOOOOOOOOOOOOOOOOOOOOOOOOOOOOOOO....XXXX....XXXOO",
"OOO XX....XXXX.....................................................................XXXX....XXXOO",
"OOO XX....XXXX.....................................................................XXXX....XXXOO",
"OOO XX....XXXX.....................................................................XXXX....XXXOO",
"OOO XX....XXXX.....................................................................XXXX....XXXOO",
"OOO XX....XXXXXXXXXXXXXXXXXXXXXXXXXXXXXXX....XXXXXXX....XXXXXXXXXXXXXXXXXXXXXXXXXXXXXXX....XXXOO",
"OOO XX....XXXXXXXXXXXXXXXXXXXXXXXXXXXXXXX....XXXXXXX....XXXXXXXXXXXXXXXXXXXXXXXXXXXXXXX....XXXOO",
"OOO XX.......................................XXooooX.......................................XXXOO",
"OOOoXX.......................................XXooooX.......................................XXXOO",
"OOOoXX.......................................XXooooX.......................................XXXOO",
"OOOoXX.......................................XXooooX.......................................XXXOO",
"OOOoXXXXXXXXXXXXXXXXXXXXXXXXXXXXXXXXXXXXX....ooooooo....XXXXXXXXXXXXXXXXXXXXXXXXXXXXXXXXXXXXXXOO",
"OOOoXXXXXXXXXXXXXXXXXXXXXXXXXXXXXXXXXXXXX....ooooooo....XXXXXXXXXXXXXXXXXXXXXXXXXXXXXXXXXXXXXXOO",
"OOOoooooooooooooooooXXXX                 ....ooooooo....                                     OOO",
"OOOoooooooooooooooooXXXX                 ....ooooooo....                                     OOO",
"OOOoooooooooooooooooXXXX                 ....XooooXX....                                     OOO",
"OOOoooooooooooooooooXXXX                 ....XooooXX....                                     OOO",
"OOOoooooooooooooooooXXXX                 ....XooooXX....                                     OOO",
"OOOoooooooooooooooooXXXXooooooooooooo...X....XooooXX....                                     OOO",
"OOOoooooooooooooooooXXXXooooooooooooo...X....XXXXXXX....                                     OOO",
"OOOoooooooooooooooooXXXXooooooooooooo...X....XXXXXXX....                                     OOO",
"OOOoooooooooooooooooXXXXoooooooooooooXXXX....XXXXXXX....                                     OOO",
"OOOoooooooooooooooooXXXXoooooooooooooXXXX...............                                     OOO",
"OOOoooooooooooooooooXXXXoooooooooooooXXXX...............                                     OOO",
"OOOoooooooooooooooooXXXXoooooooooooooXXXX...............                                     OOO",
"OOOoooooooooooooooooXXXXoooooooooooooXXXX...............                                     OOO",
"OOOoooooooooooooooooXXXXoooooooooooooXXXX                                                    OOO",
"OOOoooooooooooooooooXXXXoooooooooooooXXXX                                                    OOO",
"OOOoooooooooooooooooXXXXoooooooooooooXXXX                                                    OOO",
"OOOoooooooooooooooooXXXXoooooooooooooXXXX                                                    OOO",
"OOOoooooooooooooooooXXXXoooooooooooooXXXX                                                    OOO",
"OOOoooooooooooooooooXXXXoooooooooooooXXXXooooooooooooooo...X                                 OOO",
"OOOoooooooooooooooooXXXXoooooooooooooXXXXooooooooooooooo...X                                 OOO",
"OOOoooooooooooooooooXXXXoooooooooooooXXXXooooooooooooooo...X                                 OOO",
"OOOoooooooooooooooooXXXXoooooooooooooXXXXoooooooooooooooXXXX                                 OOO",
"OOOoooooooooooooooooXXXXoooooooooooooXXXXoooooooooooooooXXXX                                 OOO",
"OOOoooooooooooooooooXXXXoooooooooooooXXXXoooooooooooooooXXXX                                 OOO",
"OOOoooooooooooooooooXXXXoooooooooooooXXXXoooooooooooooooXXXX                                 OOO",
"OOOoooooooooooooooooXXXXoooooooooooooXXXXoooooooooooooooXXXX                                 OOO",
"OOOoooooooooooooooooXXXXoooooooooooooXXXXoooooooooooooooXXXX                                 OOO",
"OOOoooooooooooooooooXXXXoooooooooooooXXXXoooooooooooooooXXXX                                 OOO",
"OOOoooooooooooooooooXXXXoooooooooooooXXXXoooooooooooooooXXXX                                 OOO",
"OOOoooooooooooooooooXXXXoooooooooooooXXXXoooooooooooooooXXXX                                 OOO",
"OOOoooooooooooooooooXXXXoooooooooooooXXXXoooooooooooooooXXXX                                 OOO",
"OOOoooooooooooooooooXXXXoooooooooooooXXXXoooooooooooooooXXXX                                 OOO",
"OOOoooooooooooooooooXXXXoooooooooooooXXXXoooooooooooooooXXXXoooooooooooooo...X               OOO",
"OOOoooooooooooooooooXXXXoooooooooooooXXXXoooooooooooooooXXXXoooooooooooooo...X               OOO",
"OOOoooooooooooooooooXXXXoooooooooooooXXXXoooooooooooooooXXXXoooooooooooooo...X               OOO",
"OOOoooooooooooooooooXXXXoooooooooooooXXXXoooooooooooooooXXXXooooooooooooooXXXX               OOO",
"OOOoooooooooooooooooXXXXoooooooooooooXXXXoooooooooooooooXXXXooooooooooooooXXXX               OOO",
"OOOoooooooooooooooooXXXXoooooooooooooXXXXoooooooooooooooXXXXooooooooooooooXXXX               OOO",
"OOOoooooooooooooooooXXXXoooooooooooooXXXXoooooooooooooooXXXXooooooooooooooXXXX               OOO",
"OOOoooooooooooooooooXXXXoooooooooooooXXXXoooooooooooooooXXXXooooooooooooooXXXX               OOO",
"OOOoooooooooooooooooXXXXoooooooooooooXXXXoooooooooooooooXXXXooooooooooooooXXXX               OOO",
"OOOoooooooooooooooooXXXXoooooooooooooXXXXoooooooooooooooXXXXooooooooooooooXXXX               OOO",
"OOOoooooooooooooooooXXXXoooooooooooooXXXXoooooooooooooooXXXXooooooooooooooXXXX               OOO",
"OOOoooooooooooooooooXXXXoooooooooooooXXXXoooooooooooooooXXXXooooooooooooooXXXX               OOO",
"OOOoooooooooooooooooXXXXoooooooooooooXXXXoooooooooooooooXXXXooooooooooooooXXXX               OOO",
"OOOoooooooooooooooooXXXXoooooooooooooXXXXoooooooooooooooXXXXooooooooooooooXXXX               OOO",
"OOOoooooooooooooooooXXXXoooooooooooooXXXXoooooooooooooooXXXXooooooooooooooXXXXoooooooooooo...OOO",
"OOOoooooooooooooooooXXXXoooooooooooooXXXXoooooooooooooooXXXXooooooooooooooXXXXoooooooooooo...OOO",
"OOOoooooooooooooooooXXXXoooooooooooooXXXXoooooooooooooooXXXXooooooooooooooXXXXoooooooooooo...OOO",
"OOOoooooooooooooooooXXXXoooooooooooooXXXXoooooooooooooooXXXXooooooooooooooXXXXoooooooooooooooOOO",
"OOOoooooooooooooooooXXXXoooooooooooooXXXXoooooooooooooooXXXXooooooooooooooXXXXoooooooooooooooOOO",
"OOOoooooooooooooooooXXXXoooooooooooooXXXXoooooooooooooooXXXXooooooooooooooXXXXoooooooooooooooOOO",
"OOOoooooooooooooooooXXXXoooooooooooooXXXXoooooooooooooooXXXXooooooooooooooXXXXoooooooooooooooOOO",
"OOOoooooooooooooooooXXXXoooooooooooooXXXXoooooooooooooooXXXXooooooooooooooXXXXoooooooooooooooOOO",
"OOOXXXXXXXXXXXXXXXXXXXXXXXXXXXXXXXXXXXXXXXXXXXXXXXXXXXXXXXXXXXXXXXXXXXXXXXXXXXXXXXXXXXXXXXXXXOOO",
"OOOXXXXXXXXXXXXXXXXXXXXXXXXXXXXXXXXXXXXXXXXXXXXXXXXXXXXXXXXXXXXXXXXXXXXXXXXXXXXXXXXXXXXXXXXXXOOO",
"OOOXX.....................................................................................XXXOOO",
"OOOXX.....................................................................................XXXOOO",
"OOOXX.....................................................................................XXXOOO",
"OOOXX.....................................................................................XXXOOO",
"OOOXX....XXXXXXXXXXXXXXXXXXXXXXXXXXXXXXXXXXXXXXXXXXXXXXXXXXXXXXXXXXXXXXXXXXXXXXXXXXXXX....XXXOOO",
"OOOXX....XXXXXXXXXXXXXXXXXXXXXXXXXXXXXXXXXXXXXXXXXXXXXXXXXXXXXXXXXXXXXXXXXXXXXXXXXXXXX....XXXOOO",
"OOOXX....XXXXXXXXXXXXXXXXXXXXXXXXXXXXXXXXXXXXXXXXXXXXXXXXXXXXXXXXXXXXXXXXXXXXXXXXXXXXX....XXXOOO",
"OOOXX....XXXX.....................................................................XXXX....XXXOOO",
"OOOXX....XXXX.....................................................................XXXX....XXXOOO",
"OOOXX....XXXX.....................................................................XXXX....XXXOOO",
"OOOXX....XXXX.....................................................................XXXX....XXXOOO",
"OOOXX....XXXX....OOOOOOOOOOOOOOOOOOOOOOOOOOOOOOOOOOOOOOOOOOOOOOOOOOOOOOOOOOOOO....XXXX....XXXOOO",
"OOOXX....XXXX....OOOOOOOOOOOOOOOOOOOOOOOOOOOOOOOOOOOOOOOOOOOOOOOOOOOOOOOOOOOOO....XXXX....XXXOOO",
"OOOXX....XXXX....OOOOOOOOOOOOOOOOOOOOOOOOOOOOOOOOOOOOOOOOOOOOOOOOOOOOOOOOOOOOO....XXXX....XXXOOO",
"OOOXX....XXXX....OOO........................OOOOOOO........................OOO....XXXX....XXXOOO",
"OOOXX....XXXX....OOO........................OOOOOOO........................OOO....XXXX....XXXOOO",
"OOOXX....XXXX....OOO........................OOOOOOO........................OOO....XXXX....XXXOOO",
"OOOXX....XXXX....OOO........................OOOOOOO........................OOO....XXXX....XXXOOO",
"...OOOOOOOOOOOOOOOOOOOOOOOOOOOOOOOOOOOOOOOOOOOOOOOOOOOOOOOOOOOOOOOOOOOOOOOOOOOOOOOOOOOOOOOOOO...",
"...OOOOOOOOOOOOOOOOOOOOOOOOOOOOOOOOOOOOOOOOOOOOOOOOOOOOOOOOOOOOOOOOOOOOOOOOOOOOOOOOOOOOOOOOOO...",
"...OOOOOOOOOOOOOOOOOOOOOOOOOOOOOOOOOOOOOOOOOOOOOOOOOOOOOOOOOOOOOOOOOOOOOOOOOOOOOOOOOOOOOOOOOO..."
};
