/* XPM */
static char *result[] = {
/* columns rows colors chars-per-pixel */
"96 96 5 1 ",
"  c black",
". c #277082",
"X c #338FA6",
"o c #4BACC4",
"O c #95CDDB",
/* pixels */
"...OOOOOOOOOOOOOOOOOOOOOOOOOOOOOOOOOOOOOOOOOOOOOOOOOOOOOOOOOOOOOOOOOOOOOOOOOOOOOOOOOOOOOOOOOO...",
"...OOOOOOOOOOOOOOOOOOOOOOOOOOOOOOOOOOOOOOOOOOOOOOOOOOOOOOOOOOOOOOOOOOOOOOOOOOOOOOOOOOOOOOOOOO...",
"...OOOOOOOOOOOOOOOOOOOOOOOOOOOOOOOOOOOOOOOOOOOOOOOOOOOOOOOOOOOOOOOOOOOOOOOOOOOOOOOOOOOOOOOOOO...",
"OOOXX....XXXX.....................................................................XXXX....XXXOOO",
"OOOXX....XXXX.....................................................................XXXX....XXXOOO",
"OOOXX....XXXX.....................................................................XXXX....XXXOOO",
"OOOXX....XXXX.....................................................................XXXX....XXXOOO",
"OOOXX....XXXX....OOOOOOOOOOOOOOOOOOOOOOOOOOOOOOOOOOOOOOOOOOOOOOOOOOOOOOOOOOOOO....XXXX....XXXOOO",
"OOOXX....XXXX....OOOOOOOOOOOOOOOOOOOOOOOOOOOOOOOOOOOOOOOOOOOOOOOOOOOOOOOOOOOOO....XXXX....XXXOOO",
"OOOXX....XXXX....OOOOOOOOOOOOOOOOOOOOOOOOOOOOOOOOOOOOOOOOOOOOOOOOOOOOOOOOOOOOO....XXXX....XXXOOO",
"OOOXX....XXXX....OOO........................OOOOOOO........................OOO....XXXX....XXXOOO",
"OOOXX....XXXX....OOO........................OOOOOOO........................OOO....XXXX....XXXOOO",
"OOOXX....XXXX....OOO........................OOOOOOO........................OOO....XXXX....XXXOOO",
"OOOXX....XXXX....OOO........................OOOOOOO........................OOO....XXXX....XXXOOO",
"OOOXX....XXXX....OOO....OOOOOOOOOOOOOOOO....OOOOOOO....OOOOOOOOOOOOOOOO....OOO....XXXX....XXXOOO",
"OOOXX....XXXX....OOO....OOOOOOOOOOOOOOOO....OOOOOOO....OOOOOOOOOOOOOOOO....OOO....XXXX....XXXOOO",
"OOOXX....XXXX....OOO....OOOOOOOOOOOOOOOO....OOOOOOO....OOOOOOOOOOOOOOOO....OOO....XXXX....XXXOOO",
"OOOXX....XXXX....OOO....OOOOOOOOOOOOOOOO....OOOOOOO....OOOOOOOOOOOOOOOO....OOO....XXXX....XXXOOO",
"OOOXX....XXXX....OOO....OOOOOOOOOOOOOOOO....OOOOOOO....OOOOOOOOOOOOOOOO....OOO....XXXX....XXXOOO",
"OOOXX....XXXX....OOO....OOOOOOOOOOOOOOOO....OOOOOOO....OOOOOOOOOOOOOOOO....OOO....XXXX....XXXOOO",
"OOOXX....XXXX....OOO........................OOOOOOO........................OOO....XXXX....XXXOOO",
"OOOXX....XXXX....OOO........................OOOOOOO........................OOO....XXXX....XXXOOO",
"OOOXX....XXXX....OOO........................OOOOOOO........................OOO....XXXX....XXXOOO",
"OOOXX....XXXX....OOO........................OOOOOOO........................OOO....XXXX....XXXOOO",
"OOOXX....XXXX....OOOOOOOOOOOOOOOOOOOOOOOOOOOOOOOOOOOOOOOOOOOOOOOOOOOOOOOOOOOOO....XXXX....XXXOOO",
"OOOXX....XXXX....OOOOOOOOOOOOOOOOOOOOOOOOOOOOOOOOOOOOOOOOOOOOOOOOOOOOOOOOOOOOO....XXXX....XXXOOO",
"OOOXX....XXXX....OOOOOOOOOOOOOOOOOOOOOOOOOOOOOOOOOOOOOOOOOOOOOOOOOOOOOOOOOOOOO....XXXX....XXXOOO",
"OOOXX....XXXX.....................................................................XXXX....XXXOOO",
"OOOXX....XXXX.....................................................................XXXX....XXXOOO",
"OOOXX....XXXX.....................................................................XXXX....XXXOOO",
"OOOXX....XXXX.....................................................................XXXX....XXXOOO",
"OOOXX....XXXXXXXXXXXXXXXXXXXXXXXXXXXXXXX....ooooXXX....XXXXXXXXXXXXXXXXXXXXXXXXXXXXXXX....XXXOOO",
"OOOXX....XXXXXXXXXXXXXXXXXXXXXXXXXXXXXXX....ooooXXX....XXXXXXXXXXXXXXXXXXXXXXXXXXXXXXX....XXXOOO",
"OOOXX.......................................ooooXXX.......................................XXXOOO",
"OOOXX.......................................oooooXX.......................................XXXOOO",
"OOOXX.......................................oooooXX.......................................XXXOOO",
"OOOXX.......................................oooooXX.......................................XXXOOO",
"OOOXXXXXXXXXXXXXXXXXXXXXXXXXXXXXXXXXXXXX....ooooooo....XXXXXXXXXXXXXXXXXXXXXXXXXXXXXXXXXXXXXXOOO",
"OOOXXXXXXXXXXXXXXXXXXXXXXXXXXXXXXXXXXXXX....ooooooo....XXXXXXXXXXXXXXXXXXXXXXXXXXXXXXXXXXXXXXOOO",
"OOOoooooooooooooooooXXXXoooooooooooooXXX....ooooooo....o...X                                 OOO",
"OOOoooooooooooooooooXXXXoooooooooooooXXX....ooooooo....oXXXX                                 OOO",
"OOOoooooooooooooooooXXXXoooooooooooooXXX....XooooXX....oXXXX                                 OOO",
"OOOoooooooooooooooooXXXXoooooooooooooXXX....Xoooooo....oXXXX                                 OOO",
"OOOoooooooooooooooooXXXXoooooooooooooXXX....XXXoooo....oXXXX                                 OOO",
"OOOoooooooooooooooooXXXXoooooooooooooXXX....XXXoooo....oXXXX                                 OOO",
"OOOoooooooooooooooooXXXXoooooooooooooXXX....XXXoooo....oXXXX                                 OOO",
"OOOoooooooooooooooooXXXXoooooooooooooXXX....XXXXXXX....oXXXX                                 OOO",
"OOOoooooooooooooooooXXXXoooooooooooooXXX....XXXXXXX....oXXXX                                 OOO",
"OOOoooooooooooooooooXXXXoooooooooooooXXX...............oXXXX                                 OOO",
"OOOoooooooooooooooooXXXXoooooooooooooXXX...............oXXXX                                 OOO",
"OOOoooooooooooooooooXXXXoooooooooooooXXX...............oXXXX                                 OOO",
"OOOoooooooooooooooooXXXXoooooooooooooXXX...............oXXXXoooooooooooooo...X               OOO",
"OOOoooooooooooooooooXXXXoooooooooooooXXXXoooooooooooooooXXXXoooooooooooooo...X               OOO",
"OOOoooooooooooooooooXXXXoooooooooooooXXXXoooooooooooooooXXXXoooooooooooooo...X               OOO",
"OOOoooooooooooooooooXXXXoooooooooooooXXXXoooooooooooooooXXXXooooooooooooooXXXX               OOO",
"OOOXXXXXXXXXXXXXXXXXXXXXXXXXXXXXXXXXXXXXXXXXXXXXXXXXXXXXXXXXXXXXXXXXXXXXXXXXXXXXXXXXXXXXXXXXXOOO",
"OOOXXXXXXXXXXXXXXXXXXXXXXXXXXXXXXXXXXXXXXXXXXXXXXXXXXXXXXXXXXXXXXXXXXXXXXXXXXXXXXXXXXXXXXXXXXOOO",
"OOOXX.....................................................................................XXXOOO",
"OOOXX.....................................................................................XXXOOO",
"OOOXX.....................................................................................XXXOOO",
"OOOXX.....................................................................................XXXOOO",
"OOOXX....XXXXXXXXXXXXXXXXXXXXXXXXXXXXXXXXXXXXXXXXXXXXXXXXXXXXXXXXXXXXXXXXXXXXXXXXXXXXX....XXXOOO",
"OOOXX....XXXXXXXXXXXXXXXXXXXXXXXXXXXXXXXXXXXXXXXXXXXXXXXXXXXXXXXXXXXXXXXXXXXXXXXXXXXXX....XXXOOO",
"OOOXX....XXXXXXXXXXXXXXXXXXXXXXXXXXXXXXXXXXXXXXXXXXXXXXXXXXXXXXXXXXXXXXXXXXXXXXXXXXXXX....XXXOOO",
"OOOXX....XXXX.....................................................................XXXX....XXXOOO",
"OOOXX....XXXX.....................................................................XXXX....XXXOOO",
"OOOXX....XXXX.....................................................................XXXX....XXXOOO",
"OOOXX....XXXX.....................................................................XXXX....XXXOOO",
"OOOXX....XXXX....OOOOOOOOOOOOOOOOOOOOOOOOOOOOOOOOOOOOOOOOOOOOOOOOOOOOOOOOOOOOO....XXXX....XXXOOO",
"OOOXX....XXXX....OOOOOOOOOOOOOOOOOOOOOOOOOOOOOOOOOOOOOOOOOOOOOOOOOOOOOOOOOOOOO....XXXX....XXXOOO",
"OOOXX....XXXX....OOOOOOOOOOOOOOOOOOOOOOOOOOOOOOOOOOOOOOOOOOOOOOOOOOOOOOOOOOOOO....XXXX....XXXOOO",
"OOOXX....XXXX....OOO........................OOOOOOO........................OOO....XXXX....XXXOOO",
"OOOXX....XXXX....OOO........................OOOOOOO........................OOO....XXXX....XXXOOO",
"OOOXX....XXXX....OOO........................OOOOOOO........................OOO....XXXX....XXXOOO",
"OOOXX....XXXX....OOO........................OOOOOOO........................OOO....XXXX....XXXOOO",
"OOOXX....XXXX....OOO....OOOOOOOOOOOOOOOO....OOOOOOO....OOOOOOOOOOOOOOOO....OOO....XXXX....XXXOOO",
"OOOXX....XXXX....OOO....OOOOOOOOOOOOOOOO....OOOOOOO....OOOOOOOOOOOOOOOO....OOO....XXXX....XXXOOO",
"OOOXX....XXXX....OOO....OOOOOOOOOOOOOOOO....OOOOOOO....OOOOOOOOOOOOOOOO....OOO....XXXX....XXXOOO",
"OOOXX....XXXX....OOO....OOOOOOOOOOOOOOOO....OOOOOOO....OOOOOOOOOOOOOOOO....OOO....XXXX....XXXOOO",
"OOOXX....XXXX....OOO....OOOOOOOOOOOOOOOO....OOOOOOO....OOOOOOOOOOOOOOOO....OOO....XXXX....XXXOOO",
"OOOXX....XXXX....OOO....OOOOOOOOOOOOOOOO....OOOOOOO....OOOOOOOOOOOOOOOO....OOO....XXXX....XXXOOO",
"OOOXX....XXXX....OOO........................OOOOOOO........................OOO....XXXX....XXXOOO",
"OOOXX....XXXX....OOO........................OOOOOOO........................OOO....XXXX....XXXOOO",
"OOOXX....XXXX....OOO........................OOOOOOO........................OOO....XXXX....XXXOOO",
"OOOXX....XXXX....OOO........................OOOOOOO........................OOO....XXXX....XXXOOO",
"OOOXX....XXXX....OOOOOOOOOOOOOOOOOOOOOOOOOOOOOOOOOOOOOOOOOOOOOOOOOOOOOOOOOOOOO....XXXX....XXXOOO",
"OOOXX....XXXX....OOOOOOOOOOOOOOOOOOOOOOOOOOOOOOOOOOOOOOOOOOOOOOOOOOOOOOOOOOOOO....XXXX....XXXOOO",
"OOOXX....XXXX....OOOOOOOOOOOOOOOOOOOOOOOOOOOOOOOOOOOOOOOOOOOOOOOOOOOOOOOOOOOOO....XXXX....XXXOOO",
"OOOXX....XXXX.....................................................................XXXX....XXXOOO",
"OOOXX....XXXX.....................................................................XXXX....XXXOOO",
"OOOXX....XXXX.....................................................................XXXX....XXXOOO",
"OOOXX....XXXX.....................................................................XXXX....XXXOOO",
"OOOXX....XXXXXXXXXXXXXXXXXXXXXXXXXXXXXXXXXXXXXXXXXXXXXXXXXXXXXXXXXXXXXXXXXXXXXXXXXXXXX....XXXOOO",
"...OOOOOOOOOOOOOOOOOOOOOOOOOOOOOOOOOOOOOOOOOOOOOOOOOOOOOOOOOOOOOOOOOOOOOOOOOOOOOOOOOOOOOOOOOO...",
"...OOOOOOOOOOOOOOOOOOOOOOOOOOOOOOOOOOOOOOOOOOOOOOOOOOOOOOOOOOOOOOOOOOOOOOOOOOOOOOOOOOOOOOOOOO...",
"...OOOOOOOOOOOOOOOOOOOOOOOOOOOOOOOOOOOOOOOOOOOOOOOOOOOOOOOOOOOOOOOOOOOOOOOOOOOOOOOOOOOOOOOOOO..."
};
