/* XPM */
static char *result[] = {
/* columns rows colors chars-per-pixel */
"96 96 5 1 ",
"  c black",
". c #277082",
"X c #338FA6",
"o c #4BACC4",
"O c #95CDDB",
/* pixels */
"...OOOOOOOOOOOOOOOOOOOOOOOOOOOOOOOOOOOOOOOOOOOOOOOOOOOOOOOOOOOOOOOOOOOOOOOOOOOOOOOOOOOOOOOOOO...",
"...OOOOOOOOOOOOOOOOOOOOOOOOOOOOOOOOOOOOOOOOOOOOOOOOOOOOOOOOOOOOOOOOOOOOOOOOOOOOOOOOOOOOOOOOOO...",
"...OOOOOOOOOOOOOOOOOOOOOOOOOOOOOOOOOOOOOOOOOOOOOOOOOOOOOOOOOOOOOOOOOOOOOOOOOOOOOOOOOOOOOOOOOO...",
"OOOXX....XXXX....OOOOOOOOOOOOOOOOOOOOOOOOOOOOOOOOOOOOOOOOOOOOOOOOOOOOOOOOOOOOO....XXXX....XXXOOO",
"OOOXX....XXXX....OOO........................OOOOOOO........................OOO....XXXX....XXXOOO",
"OOOXX....XXXX....OOO........................OOOOOOO........................OOO....XXXX....XXXOOO",
"OOOXX....XXXX....OOO........................OOOOOOO........................OOO....XXXX....XXXOOO",
"OOOXX....XXXX....OOO........................OOOOOOO........................OOO....XXXX....XXXOOO",
"OOOXX....XXXX....OOO....OOOOOOOOOOOOOOOO....OOOOOOO....OOOOOOOOOOOOOOOO....OOO....XXXX....XXXOOO",
"OOOXX....XXXX....OOO....OOOOOOOOOOOOOOOO....OOOOOOO....OOOOOOOOOOOOOOOO....OOO....XXXX....XXXOOO",
"OOOXX....XXXX....OOO....OOOOOOOOOOOOOOOO....OOOOOOO....OOOOOOOOOOOOOOOO....OOO....XXXX....XXXOOO",
"OOOXX....XXXX....OOO....OOOOOOOOOOOOOOOO....OOOOOOO....OOOOOOOOOOOOOOOO....OOO....XXXX....XXXOOO",
"OOOXX....XXXX....OOO....OOOOOOOOOOOOOOOO....OOOOOOO....OOOOOOOOOOOOOOOO....OOO....XXXX....XXXOOO",
"OOOXX....XXXX....OOO....OOOOOOOOOOOOOOOO....OOOOOOO....OOOOOOOOOOOOOOOO....OOO....XXXX....XXXOOO",
"OOOXX....XXXX....OOO........................OOOOOOO........................OOO....XXXX....XXXOOO",
"OOOXX....XXXX....OOO........................OOOOOOO........................OOO....XXXX....XXXOOO",
"OOOXX....XXXX....OOO........................OOOOOOO........................OOO....XXXX....XXXOOO",
"OOOXX....XXXX....OOO........................OOOOOOO........................OOO....XXXX....XXXOOO",
"OOOXX....XXXX....OOOOOOOOOOOOOOOOOOOOOOOOOOOOOOOOOOOOOOOOOOOOOOOOOOOOOOOOOOOOO....XXXX....XXXOOO",
"OOOXX....XXXX....OOOOOOOOOOOOOOOOOOOOOOOOOOOOOOOOOOOOOOOOOOOOOOOOOOOOOOOOOOOOO....XXXX....XXXOOO",
"OOOXX....XXXX....OOOOOOOOOOOOOOOOOOOOOOOOOOOOOOOOOOOOOOOOOOOOOOOOOOOOOOOOOOOOO....XXXX....XXXOOO",
"OOOXX....XXXX.....................................................................XXXX....XXXOOO",
"OOOXX....XXXX.....................................................................XXXX....XXXOOO",
"OOOXX....XXXX.....................................................................XXXX....XXXOOO",
"OOOXX....XXXX.....................................................................XXXX....XXXOOO",
"OOOXX....XXXXXXXXXXXXXXXXXXXXXXXXXXXXXXX....XXXXXXX....XXXXXXXXXXXXXXXXXXXXXXXXXXXXXXX....XXXOOO",
"OOOXX....XXXXXXXXXXXXXXXXXXXXXXXXXXXXXXX....XXXXXXX....XXXXXXXXXXXXXXXXXXXXXXXXXXXXXXX....XXXOOO",
"OOOXX.......................................XXooooX.......................................XXXOOO",
"OOOXX.......................................XXooooX.......................................XXXOOO",
"OOOXX.......................................XXooooX.......................................XXXOOO",
"OOOXX.......................................XXooooX.......................................XXXOOO",
"OOOXXXXXXXXXXXXXXXXXXXXXXXXXXXXXXXXXXXXX....ooooooo....XXXXXXXXXXXXXXXXXXXXXXXXXXXXXXXXXXXXXXOOO",
"OOOXXXXXXXXXXXXXXXXXXXXXXXXXXXXXXXXXXXXX....ooooooo....XXXXXXXXXXXXXXXXXXXXXXXXXXXXXXXXXXXXXXOOO",
"OOOoooooooooooooooooXXXXoooooooooooooXXX....ooooooo....                                      OOO",
"OOOoooooooooooooooooXXXXoooooooooooooXXX....ooooooo....                                      OOO",
"OOOoooooooooooooooooXXXXoooooooooooooXXX....XooooXX....                                      OOO",
"OOOoooooooooooooooooXXXXoooooooooooooXXX....XooooXX....                                      OOO",
"OOOoooooooooooooooooXXXXoooooooooooooXXX....XooooXX....o...X                                 OOO",
"OOOoooooooooooooooooXXXXoooooooooooooXXX....XooooXX....o...X                                 OOO",
"OOOoooooooooooooooooXXXXoooooooooooooXXX....XXXXXXX....o...X                                 OOO",
"OOOoooooooooooooooooXXXXoooooooooooooXXX....XXXXXXX....oXXXX                                 OOO",
"OOOoooooooooooooooooXXXXoooooooooooooXXX....XXXXXXX....oXXXX                                 OOO",
"OOOoooooooooooooooooXXXXoooooooooooooXXX...............oXXXX                                 OOO",
"OOOoooooooooooooooooXXXXoooooooooooooXXX...............oXXXX                                 OOO",
"OOOoooooooooooooooooXXXXoooooooooooooXXX...............oXXXX                                 OOO",
"OOOoooooooooooooooooXXXXoooooooooooooXXX...............oXXXX                                 OOO",
"OOOoooooooooooooooooXXXXoooooooooooooXXXXoooooooooooooooXXXX                                 OOO",
"OOOoooooooooooooooooXXXXoooooooooooooXXXXoooooooooooooooXXXX                                 OOO",
"OOOoooooooooooooooooXXXXoooooooooooooXXXXoooooooooooooooXXXX                                 OOO",
"OOOoooooooooooooooooXXXXoooooooooooooXXXXoooooooooooooooXXXX                                 OOO",
"OOOoooooooooooooooooXXXXoooooooooooooXXXXoooooooooooooooXXXX                                 OOO",
"OOOoooooooooooooooooXXXXoooooooooooooXXXXoooooooooooooooXXXXoooooooooooooo...X               OOO",
"OOOoooooooooooooooooXXXXoooooooooooooXXXXoooooooooooooooXXXXoooooooooooooo...X               OOO",
"OOOoooooooooooooooooXXXXoooooooooooooXXXXoooooooooooooooXXXXoooooooooooooo...X               OOO",
"OOOoooooooooooooooooXXXXoooooooooooooXXXXoooooooooooooooXXXXooooooooooooooXXXX               OOO",
"OOOoooooooooooooooooXXXXoooooooooooooXXXXoooooooooooooooXXXXooooooooooooooXXXX               OOO",
"OOOoooooooooooooooooXXXXoooooooooooooXXXXoooooooooooooooXXXXooooooooooooooXXXX               OOO",
"OOOoooooooooooooooooXXXXoooooooooooooXXXXoooooooooooooooXXXXooooooooooooooXXXX               OOO",
"OOOoooooooooooooooooXXXXoooooooooooooXXXXoooooooooooooooXXXXooooooooooooooXXXX               OOO",
"OOOoooooooooooooooooXXXXoooooooooooooXXXXoooooooooooooooXXXXooooooooooooooXXXX               OOO",
"OOOoooooooooooooooooXXXXoooooooooooooXXXXoooooooooooooooXXXXooooooooooooooXXXX               OOO",
"OOOoooooooooooooooooXXXXoooooooooooooXXXXoooooooooooooooXXXXooooooooooooooXXXX               OOO",
"OOOoooooooooooooooooXXXXoooooooooooooXXXXoooooooooooooooXXXXooooooooooooooXXXX               OOO",
"OOOoooooooooooooooooXXXXoooooooooooooXXXXoooooooooooooooXXXXooooooooooooooXXXX               OOO",
"OOOoooooooooooooooooXXXXoooooooooooooXXXXoooooooooooooooXXXXooooooooooooooXXXX               OOO",
"OOOXXXXXXXXXXXXXXXXXXXXXXXXXXXXXXXXXXXXXXXXXXXXXXXXXXXXXXXXXXXXXXXXXXXXXXXXXXXXXXXXXXXXXXXXXXOOO",
"OOOXXXXXXXXXXXXXXXXXXXXXXXXXXXXXXXXXXXXXXXXXXXXXXXXXXXXXXXXXXXXXXXXXXXXXXXXXXXXXXXXXXXXXXXXXXOOO",
"OOOXX.....................................................................................XXXOOO",
"OOOXX.....................................................................................XXXOOO",
"OOOXX.....................................................................................XXXOOO",
"OOOXX.....................................................................................XXXOOO",
"OOOXX....XXXXXXXXXXXXXXXXXXXXXXXXXXXXXXXXXXXXXXXXXXXXXXXXXXXXXXXXXXXXXXXXXXXXXXXXXXXXX....XXXOOO",
"OOOXX....XXXXXXXXXXXXXXXXXXXXXXXXXXXXXXXXXXXXXXXXXXXXXXXXXXXXXXXXXXXXXXXXXXXXXXXXXXXXX....XXXOOO",
"OOOXX....XXXXXXXXXXXXXXXXXXXXXXXXXXXXXXXXXXXXXXXXXXXXXXXXXXXXXXXXXXXXXXXXXXXXXXXXXXXXX....XXXOOO",
"OOOXX....XXXX.....................................................................XXXX....XXXOOO",
"OOOXX....XXXX.....................................................................XXXX....XXXOOO",
"OOOXX....XXXX.....................................................................XXXX....XXXOOO",
"OOOXX....XXXX.....................................................................XXXX....XXXOOO",
"OOOXX....XXXX....OOOOOOOOOOOOOOOOOOOOOOOOOOOOOOOOOOOOOOOOOOOOOOOOOOOOOOOOOOOOO....XXXX....XXXOOO",
"OOOXX....XXXX....OOOOOOOOOOOOOOOOOOOOOOOOOOOOOOOOOOOOOOOOOOOOOOOOOOOOOOOOOOOOO....XXXX....XXXOOO",
"OOOXX....XXXX....OOOOOOOOOOOOOOOOOOOOOOOOOOOOOOOOOOOOOOOOOOOOOOOOOOOOOOOOOOOOO....XXXX....XXXOOO",
"OOOXX....XXXX....OOO........................OOOOOOO........................OOO....XXXX....XXXOOO",
"OOOXX....XXXX....OOO........................OOOOOOO........................OOO....XXXX....XXXOOO",
"OOOXX....XXXX....OOO........................OOOOOOO........................OOO....XXXX....XXXOOO",
"OOOXX....XXXX....OOO........................OOOOOOO........................OOO....XXXX....XXXOOO",
"OOOXX....XXXX....OOO....OOOOOOOOOOOOOOOO....OOOOOOO....OOOOOOOOOOOOOOOO....OOO....XXXX....XXXOOO",
"OOOXX....XXXX....OOO....OOOOOOOOOOOOOOOO....OOOOOOO....OOOOOOOOOOOOOOOO....OOO....XXXX....XXXOOO",
"OOOXX....XXXX....OOO....OOOOOOOOOOOOOOOO....OOOOOOO....OOOOOOOOOOOOOOOO....OOO....XXXX....XXXOOO",
"OOOXX....XXXX....OOO....OOOOOOOOOOOOOOOO....OOOOOOO....OOOOOOOOOOOOOOOO....OOO....XXXX....XXXOOO",
"OOOXX....XXXX....OOO....OOOOOOOOOOOOOOOO....OOOOOOO....OOOOOOOOOOOOOOOO....OOO....XXXX....XXXOOO",
"OOOXX....XXXX....OOO....OOOOOOOOOOOOOOOO....OOOOOOO....OOOOOOOOOOOOOOOO....OOO....XXXX....XXXOOO",
"OOOXX....XXXX....OOO........................OOOOOOO........................OOO....XXXX....XXXOOO",
"OOOXX....XXXX....OOO........................OOOOOOO........................OOO....XXXX....XXXOOO",
"...OOOOOOOOOOOOOOOOOOOOOOOOOOOOOOOOOOOOOOOOOOOOOOOOOOOOOOOOOOOOOOOOOOOOOOOOOOOOOOOOOOOOOOOOOO...",
"...OOOOOOOOOOOOOOOOOOOOOOOOOOOOOOOOOOOOOOOOOOOOOOOOOOOOOOOOOOOOOOOOOOOOOOOOOOOOOOOOOOOOOOOOOO...",
"...OOOOOOOOOOOOOOOOOOOOOOOOOOOOOOOOOOOOOOOOOOOOOOOOOOOOOOOOOOOOOOOOOOOOOOOOOOOOOOOOOOOOOOOOOO..."
};
