/* XPM */
static char *result[] = {
/* columns rows colors chars-per-pixel */
"96 96 5 1 ",
"  c black",
". c #277082",
"X c #338FA6",
"o c #4BACC4",
"O c #95CDDB",
/* pixels */
"...OOOOOOOOOOOOOOOOOOOOOOOOOOOOOOOOOOOOOOOOOOOOOOOOOOOOOOOOOOOOOOOOOOOOOOOOOOOOOOOOOOOOOOOOOO...",
"...OOOOOOOOOOOOOOOOOOOOOOOOOOOOOOOOOOOOOOOOOOOOOOOOOOOOOOOOOOOOOOOOOOOOOOOOOOOOOOOOOOOOOOOOOO...",
"...OOOOOOOOOOOOOOOOOOOOOOOOOOOOOOOOOOOOOOOOOOOOOOOOOOOOOOOOOOOOOOOOOOOOOOOOOOOOOOOOOOOOOOOOOO...",
"OOOXX.......................................XXooooX.......................................XXXOOO",
"OOOXX.......................................XXooooX.......................................XXXOOO",
"OOOXX.......................................XXooooX.......................................XXXOOO",
"OOOXXXXXXXXXXXXXXXXXXXXXXXXXXXXXXXXXXXXX....ooooooo....XXXXXXXXXXXXXXXXXXXXXXXXXXXXXXXXXXXXXXOOO",
"OOOXXXXXXXXXXXXXXXXXXXXXXXXXXXXXXXXXXXXX....ooooooo....XXXXXXXXXXXXXXXXXXXXXXXXXXXXXXXXXXXXXXOOO",
"OOO                                     ....ooooooo....                                      OOO",
"OOO                                     ....ooooooo....                                      OOO",
"OOO                                     ....XooooXX....                                      OOO",
"OOO                                     ....XooooXX....                                      OOO",
"OOO                                     ....XooooXX....                                      OOO",
"OOO                                     ....XooooXX....                                      OOO",
"OOOooooooooooooooooo...X                ....XXXXXXX....                                      OOO",
"OOOooooooooooooooooo...X                ....XXXXXXX....                                      OOO",
"OOOooooooooooooooooo...X                ....XXXXXXX....                                      OOO",
"OOOoooooooooooooooooXXXX                ...............                                      OOO",
"OOOoooooooooooooooooXXXX                ...............                                      OOO",
"OOOoooooooooooooooooXXXX                ...............                                      OOO",
"OOOoooooooooooooooooXXXX                ...............                                      OOO",
"OOOoooooooooooooooooXXXX                                                                     OOO",
"OOOoooooooooooooooooXXXX                                                                     OOO",
"OOOoooooooooooooooooXXXX                                                                     OOO",
"OOOoooooooooooooooooXXXXooooooooooooo...X                                                    OOO",
"OOOoooooooooooooooooXXXXooooooooooooo...X                                                    OOO",
"OOOoooooooooooooooooXXXXooooooooooooo...X                                                    OOO",
"OOOoooooooooooooooooXXXXoooooooooooooXXXX                                                    OOO",
"OOOoooooooooooooooooXXXXoooooooooooooXXXX                                                    OOO",
"OOOoooooooooooooooooXXXXoooooooooooooXXXX                                                    OOO",
"OOOoooooooooooooooooXXXXoooooooooooooXXXX                                                    OOO",
"OOOoooooooooooooooooXXXXoooooooooooooXXXX                                                    OOO",
"OOOoooooooooooooooooXXXXoooooooooooooXXXX                                                    OOO",
"OOOoooooooooooooooooXXXXoooooooooooooXXXX                                                    OOO",
"OOOoooooooooooooooooXXXXoooooooooooooXXXX                                                    OOO",
"OOOoooooooooooooooooXXXXoooooooooooooXXXX                                                    OOO",
"OOOoooooooooooooooooXXXXoooooooooooooXXXX                                                    OOO",
"OOOoooooooooooooooooXXXXoooooooooooooXXXXooooooooooooooo...X                                 OOO",
"OOOoooooooooooooooooXXXXoooooooooooooXXXXooooooooooooooo...X                                 OOO",
"OOOoooooooooooooooooXXXXoooooooooooooXXXXooooooooooooooo...X                                 OOO",
"OOOoooooooooooooooooXXXXoooooooooooooXXXXoooooooooooooooXXXX                                 OOO",
"OOOoooooooooooooooooXXXXoooooooooooooXXXXoooooooooooooooXXXX                                 OOO",
"OOOoooooooooooooooooXXXXoooooooooooooXXXXoooooooooooooooXXXX                                 OOO",
"OOOoooooooooooooooooXXXXoooooooooooooXXXXoooooooooooooooXXXX                                 OOO",
"OOOoooooooooooooooooXXXXoooooooooooooXXXXoooooooooooooooXXXX                                 OOO",
"OOOoooooooooooooooooXXXXoooooooooooooXXXXoooooooooooooooXXXX                                 OOO",
"OOOoooooooooooooooooXXXXoooooooooooooXXXXoooooooooooooooXXXX                                 OOO",
"OOOoooooooooooooooooXXXXoooooooooooooXXXXoooooooooooooooXXXX                                 OOO",
"OOOoooooooooooooooooXXXXoooooooooooooXXXXoooooooooooooooXXXX                                 OOO",
"OOOoooooooooooooooooXXXXoooooooooooooXXXXoooooooooooooooXXXX                                 OOO",
"OOOoooooooooooooooooXXXXoooooooooooooXXXXoooooooooooooooXXXX                                 OOO",
"OOOoooooooooooooooooXXXXoooooooooooooXXXXoooooooooooooooXXXXoooooooooooooo...X               OOO",
"OOOoooooooooooooooooXXXXoooooooooooooXXXXoooooooooooooooXXXXoooooooooooooo...X               OOO",
"OOOoooooooooooooooooXXXXoooooooooooooXXXXoooooooooooooooXXXXoooooooooooooo...X               OOO",
"OOOoooooooooooooooooXXXXoooooooooooooXXXXoooooooooooooooXXXXooooooooooooooXXXX               OOO",
"OOOoooooooooooooooooXXXXoooooooooooooXXXXoooooooooooooooXXXXooooooooooooooXXXX               OOO",
"OOOoooooooooooooooooXXXXoooooooooooooXXXXoooooooooooooooXXXXooooooooooooooXXXX               OOO",
"OOOoooooooooooooooooXXXXoooooooooooooXXXXoooooooooooooooXXXXooooooooooooooXXXX               OOO",
"OOOoooooooooooooooooXXXXoooooooooooooXXXXoooooooooooooooXXXXooooooooooooooXXXX               OOO",
"OOOoooooooooooooooooXXXXoooooooooooooXXXXoooooooooooooooXXXXooooooooooooooXXXX               OOO",
"OOOoooooooooooooooooXXXXoooooooooooooXXXXoooooooooooooooXXXXooooooooooooooXXXX               OOO",
"OOOoooooooooooooooooXXXXoooooooooooooXXXXoooooooooooooooXXXXooooooooooooooXXXX               OOO",
"OOOoooooooooooooooooXXXXoooooooooooooXXXXoooooooooooooooXXXXooooooooooooooXXXX               OOO",
"OOOoooooooooooooooooXXXXoooooooooooooXXXXoooooooooooooooXXXXooooooooooooooXXXX               OOO",
"OOOoooooooooooooooooXXXXoooooooooooooXXXXoooooooooooooooXXXXooooooooooooooXXXX               OOO",
"OOOoooooooooooooooooXXXXoooooooooooooXXXXoooooooooooooooXXXXooooooooooooooXXXXoooooooooooo...OOO",
"OOOoooooooooooooooooXXXXoooooooooooooXXXXoooooooooooooooXXXXooooooooooooooXXXXoooooooooooo...OOO",
"OOOoooooooooooooooooXXXXoooooooooooooXXXXoooooooooooooooXXXXooooooooooooooXXXXoooooooooooo...OOO",
"OOOoooooooooooooooooXXXXoooooooooooooXXXXoooooooooooooooXXXXooooooooooooooXXXXoooooooooooooooOOO",
"OOOoooooooooooooooooXXXXoooooooooooooXXXXoooooooooooooooXXXXooooooooooooooXXXXoooooooooooooooOOO",
"OOOoooooooooooooooooXXXXoooooooooooooXXXXoooooooooooooooXXXXooooooooooooooXXXXoooooooooooooooOOO",
"OOOoooooooooooooooooXXXXoooooooooooooXXXXoooooooooooooooXXXXooooooooooooooXXXXoooooooooooooooOOO",
"OOOoooooooooooooooooXXXXoooooooooooooXXXXoooooooooooooooXXXXooooooooooooooXXXXoooooooooooooooOOO",
"OOOoooooooooooooooooXXXXoooooooooooooXXXXoooooooooooooooXXXXooooooooooooooXXXXoooooooooooooooOOO",
"OOOoooooooooooooooooXXXXoooooooooooooXXXXoooooooooooooooXXXXooooooooooooooXXXXoooooooooooooooOOO",
"OOOoooooooooooooooooXXXXoooooooooooooXXXXoooooooooooooooXXXXooooooooooooooXXXXoooooooooooooooOOO",
"OOOoooooooooooooooooXXXXoooooooooooooXXXXoooooooooooooooXXXXooooooooooooooXXXXoooooooooooooooOOO",
"OOOoooooooooooooooooXXXXoooooooooooooXXXXoooooooooooooooXXXXooooooooooooooXXXXoooooooooooooooOOO",
"OOOoooooooooooooooooXXXXoooooooooooooXXXXoooooooooooooooXXXXooooooooooooooXXXXoooooooooooooooOOO",
"OOOoooooooooooooooooXXXXoooooooooooooXXXXoooooooooooooooXXXXooooooooooooooXXXXoooooooooooooooOOO",
"OOOoooooooooooooooooXXXXoooooooooooooXXXXoooooooooooooooXXXXooooooooooooooXXXXoooooooooooooooOOO",
"OOOoooooooooooooooooXXXXoooooooooooooXXXXoooooooooooooooXXXXooooooooooooooXXXXoooooooooooooooOOO",
"OOOXXXXXXXXXXXXXXXXXXXXXXXXXXXXXXXXXXXXXXXXXXXXXXXXXXXXXXXXXXXXXXXXXXXXXXXXXXXXXXXXXXXXXXXXXXOOO",
"OOOXXXXXXXXXXXXXXXXXXXXXXXXXXXXXXXXXXXXXXXXXXXXXXXXXXXXXXXXXXXXXXXXXXXXXXXXXXXXXXXXXXXXXXXXXXOOO",
"OOOXX.....................................................................................XXXOOO",
"OOOXX.....................................................................................XXXOOO",
"OOOXX.....................................................................................XXXOOO",
"OOOXX.....................................................................................XXXOOO",
"OOOXX....XXXXXXXXXXXXXXXXXXXXXXXXXXXXXXXXXXXXXXXXXXXXXXXXXXXXXXXXXXXXXXXXXXXXXXXXXXXXX....XXXOOO",
"OOOXX....XXXXXXXXXXXXXXXXXXXXXXXXXXXXXXXXXXXXXXXXXXXXXXXXXXXXXXXXXXXXXXXXXXXXXXXXXXXXX....XXXOOO",
"OOOXX....XXXXXXXXXXXXXXXXXXXXXXXXXXXXXXXXXXXXXXXXXXXXXXXXXXXXXXXXXXXXXXXXXXXXXXXXXXXXX....XXXOOO",
"OOOXX....XXXX.....................................................................XXXX....XXXOOO",
"OOOXX....XXXX.....................................................................XXXX....XXXOOO",
"...OOOOOOOOOOOOOOOOOOOOOOOOOOOOOOOOOOOOOOOOOOOOOOOOOOOOOOOOOOOOOOOOOOOOOOOOOOOOOOOOOOOOOOOOOO...",
"...OOOOOOOOOOOOOOOOOOOOOOOOOOOOOOOOOOOOOOOOOOOOOOOOOOOOOOOOOOOOOOOOOOOOOOOOOOOOOOOOOOOOOOOOOO...",
"...OOOOOOOOOOOOOOOOOOOOOOOOOOOOOOOOOOOOOOOOOOOOOOOOOOOOOOOOOOOOOOOOOOOOOOOOOOOOOOOOOOOOOOOOOO..."
};
