/* XPM */
static char *result[] = {
/* columns rows colors chars-per-pixel */
"96 96 5 1 ",
"  c black",
". c #277082",
"X c #338FA6",
"o c #4BACC4",
"O c #95CDDB",
/* pixels */
"...OOOOOOOOOOOOOOOOOOOOOOOOOOOOOOOOOOOOOOOOOOOOOOOOOOOOOOOOOOOOOOOOOOOOOOOOOOOOOOOOOOOOOOOOOO...",
"...OOOOOOOOOOOOOOOOOOOOOOOOOOOOOOOOOOOOOOOOOOOOOOOOOOOOOOOOOOOOOOOOOOOOOOOOOOOOOOOOOOOOOOOOOO...",
"...OOOOOOOOOOOOOOOOOOOOOOOOOOOOOOOOOOOOOOOOOOOOOOOOOOOOOOOOOOOOOOOOOOOOOOOOOOOOOOOOOOOOOOOOOO...",
"OOOXX....XXXXXXXXXXXXXXXXXXXXXXXXXXXXXXXXXXXXXXXXXXXXXXXXXXXXXXXXXXXXXXXXXXXXXXXXXXXXX....XXXOOO",
"OOOXX....XXXXXXXXXXXXXXXXXXXXXXXXXXXXXXXXXXXXXXXXXXXXXXXXXXXXXXXXXXXXXXXXXXXXXXXXXXXXX....XXXOOO",
"OOOXX....XXXXXXXXXXXXXXXXXXXXXXXXXXXXXXXXXXXXXXXXXXXXXXXXXXXXXXXXXXXXXXXXXXXXXXXXXXXXX....XXXOOO",
"OOOXX....XXXX.....................................................................XXXX....XXXOOO",
"OOOXX....XXXX.....................................................................XXXX....XXXOOO",
"OOOXX....XXXX.....................................................................XXXX....XXXOOO",
"OOOXX....XXXX.....................................................................XXXX....XXXOOO",
"OOOXX....XXXX....OOOOOOOOOOOOOOOOOOOOOOOOOOOOOOOOOOOOOOOOOOOOOOOOOOOOOOOOOOOOO....XXXX....XXXOOO",
"OOOXX....XXXX....OOOOOOOOOOOOOOOOOOOOOOOOOOOOOOOOOOOOOOOOOOOOOOOOOOOOOOOOOOOOO....XXXX....XXXOOO",
"OOOXX....XXXX....OOOOOOOOOOOOOOOOOOOOOOOOOOOOOOOOOOOOOOOOOOOOOOOOOOOOOOOOOOOOO....XXXX....XXXOOO",
"OOOXX....XXXX....OOO........................OOOOOOO........................OOO....XXXX....XXXOOO",
"OOOXX....XXXX....OOO........................OOOOOOO........................OOO....XXXX....XXXOOO",
"OOOXX....XXXX....OOO........................OOOOOOO........................OOO....XXXX....XXXOOO",
"OOOXX....XXXX....OOO........................OOOOOOO........................OOO....XXXX....XXXOOO",
"OOOXX....XXXX....OOO....OOOOOOOOOOOOOOOO....OOOOOOO....OOOOOOOOOOOOOOOO....OOO....XXXX....XXXOOO",
"OOOXX....XXXX....OOO....OOOOOOOOOOOOOOOO....OOOOOOO....OOOOOOOOOOOOOOOO....OOO....XXXX....XXXOOO",
"OOOXX....XXXX....OOO....OOOOOOOOOOOOOOOO....OOOOOOO....OOOOOOOOOOOOOOOO....OOO....XXXX....XXXOOO",
"OOOXX....XXXX....OOO....OOOOOOOOOOOOOOOO....OOOOOOO....OOOOOOOOOOOOOOOO....OOO....XXXX....XXXOOO",
"OOOXX....XXXX....OOO....OOOOOOOOOOOOOOOO....OOOOOOO....OOOOOOOOOOOOOOOO....OOO....XXXX....XXXOOO",
"OOOXX....XXXX....OOO....OOOOOOOOOOOOOOOO....OOOOOOO....OOOOOOOOOOOOOOOO....OOO....XXXX....XXXOOO",
"OOOXX....XXXX....OOO........................OOOOOOO........................OOO....XXXX....XXXOOO",
"OOOXX....XXXX....OOO........................OOOOOOO........................OOO....XXXX....XXXOOO",
"OOOXX....XXXX....OOO........................OOOOOOO........................OOO....XXXX....XXXOOO",
"OOOXX....XXXX....OOO........................OOOOOOO........................OOO....XXXX....XXXOOO",
"OOOXX....XXXX....OOOOOOOOOOOOOOOOOOOOOOOOOOOOOOOOOOOOOOOOOOOOOOOOOOOOOOOOOOOOO....XXXX....XXXOOO",
"OOOXX....XXXX....OOOOOOOOOOOOOOOOOOOOOOOOOOOOOOOOOOOOOOOOOOOOOOOOOOOOOOOOOOOOO....XXXX....XXXOOO",
"OOOXX....XXXX....OOOOOOOOOOOOOOOOOOOOOOOOOOOOOOOOOOOOOOOOOOOOOOOOOOOOOOOOOOOOO....XXXX....XXXOOO",
"OOOXX....XXXX.....................................................................XXXX....XXXOOO",
"OOOXX....XXXX.....................................................................XXXX....XXXOOO",
"OOOXX....XXXX.....................................................................XXXX....XXXOOO",
"OOOXX....XXXX.....................................................................XXXX....XXXOOO",
"OOOXX....XXXXXXXXXXXXXXXXXXXXXXXXXXXXXXX....XXXXXXX....XXXXXXXXXXXXXXXXXXXXXXXXXXXXXXX....XXXOOO",
"OOOXX....XXXXXXXXXXXXXXXXXXXXXXXXXXXXXXX....XXXXXXX....XXXXXXXXXXXXXXXXXXXXXXXXXXXXXXX....XXXOOO",
"OOOXX...................................ooooXXXXXXX.......................................XXXOOO",
"OOOXX...................................ooooXXXXXXX.......................................XXXOOO",
"OOOXX...................................ooooXXXXXXX.......................................XXXOOO",
"OOOXX...................................ooooXXXXXXX.......................................XXXOOO",
"OOOXXXXXXXXXXXXXXXXXXXXXXXXXXXXXXXXXXXXX....ooooooo....XXXXXXXXXXXXXXXXXXXXXXXXXXXXXXXXXXXXXXOOO",
"OOOXXXXXXXXXXXXXXXXXXXXXXXXXXXXXXXXXXXXX....ooooooo....XXXXXXXXXXXXXXXXXXXXXXXXXXXXXXXXXXXXXXOOO",
"OOOoooooooooooooooooXXXXoooooooooooooXXX....ooooooo....oXXXX                                 OOO",
"OOOoooooooooooooooooXXXXoooooooooooooXXX....ooooooo....oXXXX                                 OOO",
"OOOoooooooooooooooooXXXXoooooooooooooXXX....XXXXXXXoooooXXXX                                 OOO",
"OOOoooooooooooooooooXXXXoooooooooooooXXX....XXXXXXXoooooXXXX                                 OOO",
"OOOoooooooooooooooooXXXXoooooooooooooXXX....XXXXXXXoooooXXXX                                 OOO",
"OOOoooooooooooooooooXXXXoooooooooooooXXX....XXXXXXXoooooXXXX                                 OOO",
"OOOoooooooooooooooooXXXXoooooooooooooXXX....XXXXXXX....oXXXX                                 OOO",
"OOOoooooooooooooooooXXXXoooooooooooooXXX....XXXXXXX....oXXXX                                 OOO",
"OOOoooooooooooooooooXXXXoooooooooooooXXX....XXXXXXX....oXXXX                                 OOO",
"OOOXXXXXXXXXXXXXXXXXXXXXXXXXXXXXXXXXXXXX...............XXXXXXXXXXXXXXXXXXXXXXXXXXXXXXXXXXXXXXOOO",
"OOOXXXXXXXXXXXXXXXXXXXXXXXXXXXXXXXXXXXXX...............XXXXXXXXXXXXXXXXXXXXXXXXXXXXXXXXXXXXXXOOO",
"OOOXX.....................................................................................XXXOOO",
"OOOXX.....................................................................................XXXOOO",
"OOOXX.....................................................................................XXXOOO",
"OOOXX.....................................................................................XXXOOO",
"OOOXX....XXXXXXXXXXXXXXXXXXXXXXXXXXXXXXXXXXXXXXXXXXXXXXXXXXXXXXXXXXXXXXXXXXXXXXXXXXXXX....XXXOOO",
"OOOXX....XXXXXXXXXXXXXXXXXXXXXXXXXXXXXXXXXXXXXXXXXXXXXXXXXXXXXXXXXXXXXXXXXXXXXXXXXXXXX....XXXOOO",
"OOOXX....XXXXXXXXXXXXXXXXXXXXXXXXXXXXXXXXXXXXXXXXXXXXXXXXXXXXXXXXXXXXXXXXXXXXXXXXXXXXX....XXXOOO",
"OOOXX....XXXX.....................................................................XXXX....XXXOOO",
"OOOXX....XXXX.....................................................................XXXX....XXXOOO",
"OOOXX....XXXX.....................................................................XXXX....XXXOOO",
"OOOXX....XXXX.....................................................................XXXX....XXXOOO",
"OOOXX....XXXX....OOOOOOOOOOOOOOOOOOOOOOOOOOOOOOOOOOOOOOOOOOOOOOOOOOOOOOOOOOOOO....XXXX....XXXOOO",
"OOOXX....XXXX....OOOOOOOOOOOOOOOOOOOOOOOOOOOOOOOOOOOOOOOOOOOOOOOOOOOOOOOOOOOOO....XXXX....XXXOOO",
"OOOXX....XXXX....OOOOOOOOOOOOOOOOOOOOOOOOOOOOOOOOOOOOOOOOOOOOOOOOOOOOOOOOOOOOO....XXXX....XXXOOO",
"OOOXX....XXXX....OOO........................OOOOOOO........................OOO....XXXX....XXXOOO",
"OOOXX....XXXX....OOO........................OOOOOOO........................OOO....XXXX....XXXOOO",
"OOOXX....XXXX....OOO........................OOOOOOO........................OOO....XXXX....XXXOOO",
"OOOXX....XXXX....OOO........................OOOOOOO........................OOO....XXXX....XXXOOO",
"OOOXX....XXXX....OOO....OOOOOOOOOOOOOOOO....OOOOOOO....OOOOOOOOOOOOOOOO....OOO....XXXX....XXXOOO",
"OOOXX....XXXX....OOO....OOOOOOOOOOOOOOOO....OOOOOOO....OOOOOOOOOOOOOOOO....OOO....XXXX....XXXOOO",
"OOOXX....XXXX....OOO....OOOOOOOOOOOOOOOO....OOOOOOO....OOOOOOOOOOOOOOOO....OOO....XXXX....XXXOOO",
"OOOXX....XXXX....OOO....OOOOOOOOOOOOOOOO....OOOOOOO....OOOOOOOOOOOOOOOO....OOO....XXXX....XXXOOO",
"OOOXX....XXXX....OOO....OOOOOOOOOOOOOOOO....OOOOOOO....OOOOOOOOOOOOOOOO....OOO....XXXX....XXXOOO",
"OOOXX....XXXX....OOO....OOOOOOOOOOOOOOOO....OOOOOOO....OOOOOOOOOOOOOOOO....OOO....XXXX....XXXOOO",
"OOOXX....XXXX....OOO........................OOOOOOO........................OOO....XXXX....XXXOOO",
"OOOXX....XXXX....OOO........................OOOOOOO........................OOO....XXXX....XXXOOO",
"OOOXX....XXXX....OOO........................OOOOOOO........................OOO....XXXX....XXXOOO",
"OOOXX....XXXX....OOO........................OOOOOOO........................OOO....XXXX....XXXOOO",
"OOOXX....XXXX....OOOOOOOOOOOOOOOOOOOOOOOOOOOOOOOOOOOOOOOOOOOOOOOOOOOOOOOOOOOOO....XXXX....XXXOOO",
"OOOXX....XXXX....OOOOOOOOOOOOOOOOOOOOOOOOOOOOOOOOOOOOOOOOOOOOOOOOOOOOOOOOOOOOO....XXXX....XXXOOO",
"OOOXX....XXXX....OOOOOOOOOOOOOOOOOOOOOOOOOOOOOOOOOOOOOOOOOOOOOOOOOOOOOOOOOOOOO....XXXX....XXXOOO",
"OOOXX....XXXX.....................................................................XXXX....XXXOOO",
"OOOXX....XXXX.....................................................................XXXX....XXXOOO",
"OOOXX....XXXX.....................................................................XXXX....XXXOOO",
"OOOXX....XXXX.....................................................................XXXX....XXXOOO",
"OOOXX....XXXXXXXXXXXXXXXXXXXXXXXXXXXXXXXXXXXXXXXXXXXXXXXXXXXXXXXXXXXXXXXXXXXXXXXXXXXXX....XXXOOO",
"OOOXX....XXXXXXXXXXXXXXXXXXXXXXXXXXXXXXXXXXXXXXXXXXXXXXXXXXXXXXXXXXXXXXXXXXXXXXXXXXXXX....XXXOOO",
"OOOXX.....................................................................................XXXOOO",
"OOOXX.....................................................................................XXXOOO",
"OOOXX.....................................................................................XXXOOO",
"...OOOOOOOOOOOOOOOOOOOOOOOOOOOOOOOOOOOOOOOOOOOOOOOOOOOOOOOOOOOOOOOOOOOOOOOOOOOOOOOOOOOOOOOOOO...",
"...OOOOOOOOOOOOOOOOOOOOOOOOOOOOOOOOOOOOOOOOOOOOOOOOOOOOOOOOOOOOOOOOOOOOOOOOOOOOOOOOOOOOOOOOOO...",
"...OOOOOOOOOOOOOOOOOOOOOOOOOOOOOOOOOOOOOOOOOOOOOOOOOOOOOOOOOOOOOOOOOOOOOOOOOOOOOOOOOOOOOOOOOO..."
};
