/* XPM */
static char *result[] = {
/* columns rows colors chars-per-pixel */
"96 96 4 1 ",
"  c #277082",
". c #338FA6",
"X c #4BACC4",
"o c #95CDDB",
/* pixels */
"   oooooooooooooooooooooooooooooooooooooooooooooooooooooooooooooooooooooooooooooooooooooooooo   ",
"   oooooooooooooooooooooooooooooooooooooooooooooooooooooooooooooooooooooooooooooooooooooooooo   ",
"   oooooooooooooooooooooooooooooooooooooooooooooooooooooooooooooooooooooooooooooooooooooooooo   ",
"ooo..........................................................................................ooo",
"ooo..........................................................................................ooo",
"ooo..                                                                                     ...ooo",
"ooo..                                                                                     ...ooo",
"ooo..                                                                                     ...ooo",
"ooo..                                                                                     ...ooo",
"ooo..    .............................................................................    ...ooo",
"ooo..    .............................................................................    ...ooo",
"ooo..    .............................................................................    ...ooo",
"ooo..    ....                                                                     ....    ...ooo",
"ooo..    ....                                                                     ....    ...ooo",
"ooo..    ....                                                                     ....    ...ooo",
"ooo..    ....                                                                     ....    ...ooo",
"ooo..    ....    ooooooooooooooooooooooooooooooooooooooooooooooooooooooooooooo    ....    ...ooo",
"ooo..    ....    ooooooooooooooooooooooooooooooooooooooooooooooooooooooooooooo    ....    ...ooo",
"ooo..    ....    ooooooooooooooooooooooooooooooooooooooooooooooooooooooooooooo    ....    ...ooo",
"ooo..    ....    ooo                        ooooooo                        ooo    ....    ...ooo",
"ooo..    ....    ooo                        ooooooo                        ooo    ....    ...ooo",
"ooo..    ....    ooo                        ooooooo                        ooo    ....    ...ooo",
"ooo..    ....    ooo                        ooooooo                        ooo    ....    ...ooo",
"ooo..    ....    ooo    oooooooooooooooo    ooooooo    oooooooooooooooo    ooo    ....    ...ooo",
"ooo..    ....    ooo    oooooooooooooooo    ooooooo    oooooooooooooooo    ooo    ....    ...ooo",
"ooo..    ....    ooo    oooooooooooooooo    ooooooo    oooooooooooooooo    ooo    ....    ...ooo",
"ooo..    ....    ooo    oooooooooooooooo    ooooooo    oooooooooooooooo    ooo    ....    ...ooo",
"ooo..    ....    ooo    oooooooooooooooo    ooooooo    oooooooooooooooo    ooo    ....    ...ooo",
"ooo..    ....    ooo    oooooooooooooooo    ooooooo    oooooooooooooooo    ooo    ....    ...ooo",
"ooo..    ....    ooo                        ooooooo                        ooo    ....    ...ooo",
"ooo..    ....    ooo                        ooooooo                        ooo    ....    ...ooo",
"ooo..    ....    ooo                        ooooooo                        ooo    ....    ...ooo",
"ooo..    ....    ooo                        ooooooo                        ooo    ....    ...ooo",
"ooo..    ....    ooooooooooooooooooooooooooooooooooooooooooooooooooooooooooooo    ....    ...ooo",
"ooo..    ....    ooooooooooooooooooooooooooooooooooooooooooooooooooooooooooooo    ....    ...ooo",
"ooo..    ....    ooooooooooooooooooooooooooooooooooooooooooooooooooooooooooooo    ....    ...ooo",
"ooo..    ....                                                                     ....    ...ooo",
"ooo..    ....                                                                     ....    ...ooo",
"ooo..    ....                                                                     ....    ...ooo",
"ooo..    ....                                                                     ....    ...ooo",
"ooo..    ...............................    .......    ...............................    ...ooo",
"ooo..    ...............................    .......    ...............................    ...ooo",
"ooo..                                       .......                                       ...ooo",
"ooo..                                       .......                                       ...ooo",
"ooo..                                       .......                                       ...ooo",
"ooo..                                       .......                                       ...ooo",
"ooo.....................................XXXXXXXXXXXXXXX......................................ooo",
"ooo.....................................XXXXXXXXXXXXXXX......................................ooo",
"ooo.....................................XXXXXXXXXXXXXXX......................................ooo",
"ooo.....................................XXXXXXXXXXXXXXX......................................ooo",
"ooo..                                       .......                                       ...ooo",
"ooo..                                       .......                                       ...ooo",
"ooo..                                       .......                                       ...ooo",
"ooo..                                       .......                                       ...ooo",
"ooo..    ...............................    .......    ...............................    ...ooo",
"ooo..    ...............................    .......    ...............................    ...ooo",
"ooo..    ...............................    .......    ...............................    ...ooo",
"ooo..    ....                                                                     ....    ...ooo",
"ooo..    ....                                                                     ....    ...ooo",
"ooo..    ....                                                                     ....    ...ooo",
"ooo..    ....                                                                     ....    ...ooo",
"ooo..    ....    ooooooooooooooooooooooooooooooooooooooooooooooooooooooooooooo    ....    ...ooo",
"ooo..    ....    ooooooooooooooooooooooooooooooooooooooooooooooooooooooooooooo    ....    ...ooo",
"ooo..    ....    ooooooooooooooooooooooooooooooooooooooooooooooooooooooooooooo    ....    ...ooo",
"ooo..    ....    ooo                        ooooooo                        ooo    ....    ...ooo",
"ooo..    ....    ooo                        ooooooo                        ooo    ....    ...ooo",
"ooo..    ....    ooo                        ooooooo                        ooo    ....    ...ooo",
"ooo..    ....    ooo                        ooooooo                        ooo    ....    ...ooo",
"ooo..    ....    ooo    oooooooooooooooo    ooooooo    oooooooooooooooo    ooo    ....    ...ooo",
"ooo..    ....    ooo    oooooooooooooooo    ooooooo    oooooooooooooooo    ooo    ....    ...ooo",
"ooo..    ....    ooo    oooooooooooooooo    ooooooo    oooooooooooooooo    ooo    ....    ...ooo",
"ooo..    ....    ooo    oooooooooooooooo    ooooooo    oooooooooooooooo    ooo    ....    ...ooo",
"ooo..    ....    ooo    oooooooooooooooo    ooooooo    oooooooooooooooo    ooo    ....    ...ooo",
"ooo..    ....    ooo    oooooooooooooooo    ooooooo    oooooooooooooooo    ooo    ....    ...ooo",
"ooo..    ....    ooo                        ooooooo                        ooo    ....    ...ooo",
"ooo..    ....    ooo                        ooooooo                        ooo    ....    ...ooo",
"ooo..    ....    ooo                        ooooooo                        ooo    ....    ...ooo",
"ooo..    ....    ooo                        ooooooo                        ooo    ....    ...ooo",
"ooo..    ....    ooooooooooooooooooooooooooooooooooooooooooooooooooooooooooooo    ....    ...ooo",
"ooo..    ....    ooooooooooooooooooooooooooooooooooooooooooooooooooooooooooooo    ....    ...ooo",
"ooo..    ....    ooooooooooooooooooooooooooooooooooooooooooooooooooooooooooooo    ....    ...ooo",
"ooo..    ....                                                                     ....    ...ooo",
"ooo..    ....                                                                     ....    ...ooo",
"ooo..    ....                                                                     ....    ...ooo",
"ooo..    ....                                                                     ....    ...ooo",
"ooo..    .............................................................................    ...ooo",
"ooo..    .............................................................................    ...ooo",
"ooo..                                                                                     ...ooo",
"ooo..                                                                                     ...ooo",
"ooo..                                                                                     ...ooo",
"ooo..                                                                                     ...ooo",
"ooo..........................................................................................ooo",
"ooo..........................................................................................ooo",
"   oooooooooooooooooooooooooooooooooooooooooooooooooooooooooooooooooooooooooooooooooooooooooo   ",
"   oooooooooooooooooooooooooooooooooooooooooooooooooooooooooooooooooooooooooooooooooooooooooo   ",
"   oooooooooooooooooooooooooooooooooooooooooooooooooooooooooooooooooooooooooooooooooooooooooo   "
};
